<?xml version="1.0" encoding="iso-8859-1"?>
<!-- Generator: Adobe Illustrator 19.0.0, SVG Export Plug-In . SVG Version: 6.00 Build 0)  -->
<svg version="1.1" id="Capa_1" xmlns="http://www.w3.org/2000/svg" xmlns:xlink="http://www.w3.org/1999/xlink" x="0px" y="0px"
	 viewBox="0 0 512 512" style="enable-background:new 0 0 512 512;" xml:space="preserve">
<path style="fill:#E2E2E2;" d="M502,316v63c0,11.05-8.95,20-20,20H316H196H30c-11.05,0-20-8.95-20-20v-63h43h406H502z"/>
<path style="fill:#AFAFAF;" d="M502,316v-286c0-11.05-8.95-20-20-20H30c-11.05,0-20,8.95-20,20v286H502z"/>
<path style="fill:#935C41;" d="M459,316l-133-133l-60,63l-80-84L54,290c0,0-1,27-1,26h407"/>
<path style="fill:#BEE7F4;" d="M459,53.001v263l-133-130l-60,60l-10-10l-70-70L53,296v-243H459z"/>
<path style="fill:#AFAFAF;" d="M376,469v33H136v-33l12.57-4.19C176.89,455.37,196,428.86,196,399h120
	c0,29.86,19.11,56.37,47.43,65.81L376,469z"/>
<path style="fill:#FEB756;" d="M276,116.001c11.05,0,20,8.95,20,20s-8.95,20-20,20s-20-8.95-20-20S264.95,116.001,276,116.001z"/>
<path d="M336,146.001h40c5.522,0,10-4.478,10-10s-4.478-10-10-10h-40c-5.522,0-10,4.478-10,10S330.478,146.001,336,146.001z"/>
<path d="M276,349h-40c-5.522,0-10,4.478-10,10c0,5.522,4.478,10,10,10h40c5.522,0,10-4.478,10-10C286,353.479,281.522,349,276,349z"
	/>
<path d="M482,0.001H30c-16.542,0-30,13.458-30,30v349c0,16.542,13.458,30,30,30h155.15c-3.626,21.342-18.683,39.303-39.742,46.323
	l-12.57,4.19c-4.084,1.36-6.838,5.182-6.838,9.486v33c0,5.522,4.478,10,10,10h240c5.522,0,10-4.478,10-10v-33
	c0-4.305-2.754-8.126-6.838-9.486l-12.57-4.191c-21.059-7.019-36.116-24.98-39.742-46.322H482c16.542,0,30-13.458,30-30v-349
	C512,13.459,498.542,0.001,482,0.001z M30,20.001h452c5.514,0,10,4.486,10,10v276h-23v-253c0-5.522-4.478-10-10-10H53
	c-5.522,0-10,4.478-10,10v253H20v-276C20,24.487,24.486,20.001,30,20.001z M449,292.242L332.99,178.85
	c-3.916-3.828-10.187-3.794-14.062,0.08L266,231.857l-2.929-2.929l-70-70c-3.875-3.873-10.144-3.909-14.062-0.08L63,272.242V63.001
	h386V292.242z M63,300.21l122.92-120.148l63.009,63.01l51.73,51.73c1.953,1.952,4.512,2.929,7.071,2.929s5.118-0.977,7.071-2.929
	c3.905-3.905,3.905-10.237,0-14.143l-34.658-34.658l45.938-45.938L434.463,306H63V300.21z M360.268,474.297l5.732,1.911V492H146
	v-15.793l5.732-1.91c29.256-9.752,49.859-35.296,53.642-65.297h101.252C310.408,439.002,331.012,464.546,360.268,474.297z M482,389
	H316H196H30c-5.514,0-10-4.486-10-10v-53h472v53C492,384.515,487.514,389,482,389z"/>
<path d="M276,166.001c16.542,0,30-13.458,30-30s-13.458-30-30-30s-30,13.458-30,30S259.458,166.001,276,166.001z M276,126.001
	c5.514,0,10,4.486,10,10s-4.486,10-10,10s-10-4.486-10-10S270.486,126.001,276,126.001z"/>
<path d="M136,126.001h40c5.522,0,10-4.478,10-10s-4.478-10-10-10h-40c-5.522,0-10,4.478-10,10S130.478,126.001,136,126.001z"/>
<path d="M216,126.001c5.52,0,10-4.48,10-10s-4.48-10-10-10s-10,4.48-10,10S210.48,126.001,216,126.001z"/>
<g>
</g>
<g>
</g>
<g>
</g>
<g>
</g>
<g>
</g>
<g>
</g>
<g>
</g>
<g>
</g>
<g>
</g>
<g>
</g>
<g>
</g>
<g>
</g>
<g>
</g>
<g>
</g>
<g>
</g>
</svg>
