<?xml version="1.0" encoding="iso-8859-1"?>
<!-- Generator: Adobe Illustrator 19.0.0, SVG Export Plug-In . SVG Version: 6.00 Build 0)  -->
<svg version="1.1" id="Capa_1" xmlns="http://www.w3.org/2000/svg" xmlns:xlink="http://www.w3.org/1999/xlink" x="0px" y="0px"
	 viewBox="0 0 512 512" style="enable-background:new 0 0 512 512;" xml:space="preserve">
<path style="fill:#E2E2E2;" d="M481.39,103.938c7.6,7.6,7.84,19.85,0.54,27.73l-36.44,41.22l-0.1-0.09L332.63,60.028l40.97-36.69
	c7.89-7.3,20.13-7.06,27.73,0.54L481.39,103.938z"/>
<path style="fill:#4DBBEB;" d="M445.49,172.888l-191.16,216.28c-1.71,1.93-3.77,3.5-6.06,4.63l-135.22-135.21
	c1.13-2.29,2.7-4.35,4.63-6.06l214.95-192.5l112.76,112.77L445.49,172.888z"/>
<path style="fill:#E2E2E2;" d="M113.05,258.588l135.22,135.21c-2.02,1.01-4.21,1.68-6.5,1.95l-68.18,8.23l-28.29,28.28
	c-7.81,7.81-20.47,7.81-28.28,0l-42.43-42.43c-7.81-7.81-7.81-20.47,0-28.28l28.29-28.28l8.23-68.18
	C111.38,262.798,112.05,260.608,113.05,258.588z"/>
<polygon style="fill:#4DBBEB;" points="117.02,432.258 95.26,454.018 10,454.018 74.59,389.828 "/>
<path d="M502,484.018H193c-5.522,0-10,4.478-10,10s4.478,10,10,10h309c5.522,0,10-4.478,10-10S507.523,484.018,502,484.018z"/>
<path d="M113,484.018H10c-5.522,0-10,4.478-10,10s4.478,10,10,10h103c5.522,0,10-4.478,10-10S118.523,484.018,113,484.018z"/>
<path d="M323.29,121.412c-3.71-4.091-10.033-4.399-14.126-0.692l-100.89,91.46c-4.092,3.71-4.401,10.034-0.692,14.126
	c1.974,2.177,4.688,3.283,7.412,3.283c2.396,0,4.799-0.855,6.714-2.591l100.89-91.46
	C326.689,131.828,326.999,125.504,323.29,121.412z"/>
<path d="M178.218,413.492l64.725-7.813c3.152-0.372,6.198-1.266,9.047-2.598c0.097-0.039,0.19-0.086,0.286-0.128
	c0.138-0.066,0.282-0.119,0.419-0.187c0.041-0.02,0.081-0.043,0.122-0.064c0.066-0.034,0.131-0.068,0.197-0.103
	c3.344-1.699,6.306-3.982,8.811-6.809l191.159-216.279l36.369-41.141c10.913-11.877,10.531-30.083-0.891-41.504l-80.06-80.059
	c-11.421-11.426-29.647-11.799-41.527-0.87L327.44,51.254c-0.724,0.423-1.41,0.934-2.031,1.554c-0.35,0.35-0.657,0.725-0.945,1.111
	L111.048,245.044c-2.823,2.501-5.109,5.47-6.804,8.81c-0.032,0.06-0.063,0.12-0.094,0.18c-0.02,0.04-0.042,0.078-0.062,0.118
	c-0.056,0.113-0.098,0.23-0.152,0.343c-0.061,0.135-0.125,0.268-0.179,0.405c-1.329,2.876-2.21,5.899-2.574,8.992l-7.816,64.748
	l-25.848,25.839c-5.666,5.666-8.786,13.199-8.786,21.211c0,4.543,1.005,8.93,2.907,12.912L2.952,446.926
	c-2.873,2.854-3.74,7.161-2.196,10.905c1.545,3.744,5.195,6.188,9.245,6.188h85.26c2.652,0,5.195-1.054,7.071-2.929l15.905-15.905
	c4.075,1.941,8.498,2.917,12.924,2.917c7.681,0,15.363-2.924,21.21-8.771L178.218,413.492z M248.865,380.253L126.583,257.979
	L332.251,73.792l99.515,99.524L248.865,380.253z M380.271,30.788c0.041-0.036,0.081-0.072,0.12-0.109
	c3.96-3.663,10.053-3.547,13.868,0.271l80.061,80.06c3.818,3.818,3.938,9.907,0.274,13.863c-0.053,0.057-0.104,0.114-0.156,0.173
	l-29.401,33.258L347.173,60.43L380.271,30.788z M91.118,444.018H34.249l40.319-40.07l28.31,28.31L91.118,444.018z M124.091,425.187
	l-42.43-42.431c-3.897-3.897-3.897-10.239-0.001-14.136l28.29-28.28c0.098-0.098,0.182-0.203,0.275-0.304
	c0.098-0.106,0.197-0.211,0.29-0.321c0.121-0.144,0.234-0.291,0.346-0.44c0.085-0.112,0.17-0.224,0.25-0.34
	c0.107-0.156,0.207-0.315,0.304-0.475c0.072-0.119,0.145-0.237,0.213-0.359c0.091-0.165,0.174-0.332,0.255-0.5
	c0.061-0.126,0.121-0.252,0.177-0.381c0.074-0.173,0.141-0.348,0.205-0.524c0.048-0.132,0.096-0.263,0.139-0.397
	c0.058-0.183,0.107-0.368,0.154-0.554c0.034-0.133,0.069-0.264,0.098-0.399c0.041-0.196,0.072-0.392,0.102-0.59
	c0.015-0.097,0.038-0.191,0.05-0.289l6.676-55.302l108.219,108.21l-55.311,6.676c-0.097,0.012-0.189,0.035-0.285,0.049
	c-0.197,0.029-0.394,0.06-0.59,0.102c-0.14,0.03-0.277,0.066-0.415,0.101c-0.177,0.045-0.354,0.092-0.529,0.147
	c-0.148,0.047-0.292,0.1-0.437,0.153c-0.159,0.058-0.317,0.118-0.474,0.185c-0.152,0.065-0.299,0.135-0.446,0.207
	c-0.144,0.07-0.286,0.14-0.427,0.217c-0.153,0.084-0.3,0.173-0.448,0.264c-0.128,0.079-0.256,0.158-0.381,0.244
	c-0.153,0.105-0.3,0.216-0.447,0.328c-0.113,0.087-0.226,0.172-0.335,0.264c-0.15,0.126-0.293,0.259-0.435,0.393
	c-0.073,0.069-0.152,0.13-0.223,0.202l-28.291,28.281C134.333,429.087,127.99,429.086,124.091,425.187z"/>
<path d="M185,236.018c-5.52,0-10,4.48-10,10s4.48,10,10,10s10-4.48,10-10S190.52,236.018,185,236.018z"/>
<path d="M153,484.018c-5.52,0-10,4.48-10,10s4.48,10,10,10s10-4.48,10-10S158.52,484.018,153,484.018z"/>
<g>
</g>
<g>
</g>
<g>
</g>
<g>
</g>
<g>
</g>
<g>
</g>
<g>
</g>
<g>
</g>
<g>
</g>
<g>
</g>
<g>
</g>
<g>
</g>
<g>
</g>
<g>
</g>
<g>
</g>
</svg>
