<?xml version="1.0" encoding="iso-8859-1"?>
<!-- Generator: Adobe Illustrator 19.0.0, SVG Export Plug-In . SVG Version: 6.00 Build 0)  -->
<svg version="1.1" id="Capa_1" xmlns="http://www.w3.org/2000/svg" xmlns:xlink="http://www.w3.org/1999/xlink" x="0px" y="0px"
	 viewBox="0 0 512 512" style="enable-background:new 0 0 512 512;" xml:space="preserve">
<path style="fill:#4DBBEB;" d="M129.97,397.936H39.983c-16.561,0-29.982-13.431-29.982-29.982v-92.097h491.978v92.097
	c0,16.551-13.431,29.982-29.982,29.982H382.05H129.97z"/>
<path style="fill:#FEB756;" d="M501.979,225.873v49.984H10.001v-49.984c0-16.561,13.421-29.982,29.982-29.982h432.014
	C488.548,195.89,501.979,209.311,501.979,225.873z"/>
<path style="fill:#E2E2E2;" d="M382.05,397.936v104.048H129.97V397.936v-59.965h252.08L382.05,397.936L382.05,397.936z"/>
<path style="fill:#4DBBEB;" d="M402.011,89.932H110.259c-11.051,0-20.232,8.951-20.232,20.002v85.957h331.986v-85.957
	C422.013,98.883,413.063,89.932,402.011,89.932z"/>
<polygon style="fill:#E2E2E2;" points="199.996,10.016 130.21,79.951 129.99,79.951 129.99,89.932 129.99,195.89 382.051,195.89 
	382.051,89.932 382.051,10.016 "/>
<path d="M322.095,387.885h-91.917c-5.522,0-10.001,4.477-10.001,10.001c0,5.523,4.478,10.001,10.001,10.001h91.917
	c5.522,0,10.001-4.477,10.001-10.001C332.096,392.363,327.619,387.885,322.095,387.885z"/>
<path d="M362.318,245.964h79.696c5.522,0,10.001-4.477,10.001-10.001c0-5.523-4.478-10.001-10.001-10.001h-79.696
	c-5.522,0-10.001,4.477-10.001,10.001C352.318,241.487,356.796,245.964,362.318,245.964z"/>
<path d="M512,275.857c0-0.13-0.015-0.256-0.02-0.385v-49.599c0-22.047-17.936-39.983-39.982-39.983h-39.983v-75.956
	c0-16.543-13.459-30.002-30.002-30.002h-9.961V10.016c0-5.523-4.478-10.001-10.001-10.001H199.996c-0.115,0-0.225,0.013-0.339,0.017
	c-0.116,0.004-0.231,0.01-0.347,0.018c-0.425,0.029-0.844,0.077-1.253,0.157c-0.008,0.002-0.016,0.002-0.024,0.004
	c-0.443,0.088-0.871,0.212-1.291,0.357c-0.078,0.027-0.154,0.056-0.231,0.085c-0.399,0.148-0.787,0.316-1.16,0.512
	c-0.021,0.011-0.043,0.02-0.064,0.031c-0.39,0.208-0.759,0.447-1.116,0.703c-0.081,0.058-0.161,0.119-0.24,0.18
	c-0.353,0.27-0.695,0.555-1.008,0.869c-0.002,0.002-0.004,0.003-0.006,0.005l-68.684,68.831c-2.558,1.807-4.234,4.779-4.241,8.148
	h-9.732c-16.67,0-30.231,13.459-30.231,30.002v75.956H39.983C17.937,185.89,0,203.826,0,225.873v142.081
	C0,390,17.937,407.937,39.983,407.937h79.986v94.047c0,5.522,4.478,10.001,10.001,10.001h252.08c5.522,0,10.001-4.478,10.001-10.001
	v-94.047h79.946c22.047,0,39.982-17.936,39.982-39.983v-91.708C511.985,276.116,512,275.988,512,275.857z M402.011,99.933
	c5.514,0,10.001,4.486,10.001,10.001v75.956h-19.962V99.933H402.011z M372.05,185.89H139.991V92.012
	c0.141-0.665,0.217-1.353,0.219-2.06h59.786c5.522,0,10.001-4.477,10.001-10.001V20.017h162.053V185.89H372.05z M189.995,34.197
	V69.95h-35.678L189.995,34.197z M100.029,109.934c0-5.42,4.685-10.001,10.23-10.001h9.731v85.957h-19.962v-75.956H100.029z
	 M39.983,205.891h432.014c11.018,0,19.981,8.964,19.981,19.982v39.983H20.002v-39.983C20.002,214.855,28.965,205.891,39.983,205.891
	z M372.05,491.983H139.972V347.972H372.05V491.983z M471.998,387.935h-79.946v-39.963h19.742c5.522,0,10.001-4.477,10.001-10.001
	s-4.478-10.001-10.001-10.001H99.988c-5.522,0-10.001,4.477-10.001,10.001s4.478,10.001,10.001,10.001h19.982v39.963H39.983
	c-11.019,0-19.982-8.964-19.982-19.982v-82.096h471.977v82.096C491.978,378.972,483.016,387.935,471.998,387.935z"/>
<path d="M322.095,427.888h-131.92c-5.522,0-10.001,4.477-10.001,10.001s4.478,10.001,10.001,10.001h131.92
	c5.522,0,10.001-4.477,10.001-10.001S327.619,427.888,322.095,427.888z"/>
<path d="M322.316,245.674c5.52,0,10.001-4.48,10.001-10.001c0-5.52-4.48-10.001-10.001-10.001s-10.001,4.48-10.001,10.001
	C312.315,241.194,316.796,245.674,322.316,245.674z"/>
<path d="M190.306,407.847c5.52,0,10.001-4.48,10.001-10.001c0-5.53-4.48-10.001-10.001-10.001c-5.52,0-10.001,4.47-10.001,10.001
	C180.305,403.367,184.785,407.847,190.306,407.847z"/>
<path d="M90.298,245.674c5.52,0,10.001-4.48,10.001-10.001c0-5.52-4.48-10.001-10.001-10.001c-5.52,0-10.001,4.48-10.001,10.001
	C80.297,241.194,84.778,245.674,90.298,245.674z"/>
<g>
</g>
<g>
</g>
<g>
</g>
<g>
</g>
<g>
</g>
<g>
</g>
<g>
</g>
<g>
</g>
<g>
</g>
<g>
</g>
<g>
</g>
<g>
</g>
<g>
</g>
<g>
</g>
<g>
</g>
</svg>
