<?xml version="1.0" encoding="iso-8859-1"?>
<!-- Generator: Adobe Illustrator 19.0.0, SVG Export Plug-In . SVG Version: 6.00 Build 0)  -->
<svg version="1.1" id="Capa_1" xmlns="http://www.w3.org/2000/svg" xmlns:xlink="http://www.w3.org/1999/xlink" x="0px" y="0px"
	 viewBox="0 0 512 512" style="enable-background:new 0 0 512 512;" xml:space="preserve">
<path style="fill:#4DBBEB;" d="M426.344,18.371c51.163,26.622,58.193,91.405,21.091,128.507L203.832,388.852l-24.741-3.53
	l-74.264-10.611l-10.611-74.244l-3.53-24.751c0,0,1.41,0.21,243.604-241.984C357.531,10.491,395.243,2.2,426.344,18.371z"/>
<path style="fill:#E2E2E2;" d="M405.003,76.165c7.8,7.79,7.8,20.481,0,28.282l-53.743,53.493l-28.292-28.292l53.753-53.483
	C383.872,69.004,395.743,66.894,405.003,76.165z"/>
<path style="fill:#FD3C65;" d="M351.26,157.939c7.81,7.81,7.81,20.471,0,28.282l-70.714,70.714c-7.81,7.81-20.481,7.81-28.292,0
	l-28.282-28.282c-7.81-7.81-7.81-20.481,0-28.292l70.714-70.714c7.81-7.81,20.471-7.81,28.282,0L351.26,157.939z"/>
<g>
	<polygon style="fill:#E2E2E2;" points="252.255,256.935 182.611,325.209 157.859,321.678 154.329,296.927 223.973,228.653 	"/>
	<path style="fill:#E2E2E2;" d="M179.09,385.322L62.394,501.999L41.183,353.5c0,0,39.782-39.782,53.033-53.033l10.611,74.244
		L179.09,385.322z"/>
</g>
<path d="M273.475,193.29l-14.151,14.151c-3.905,3.905-3.905,10.238,0,14.143c1.953,1.953,4.512,2.929,7.071,2.929
	s5.118-0.977,7.071-2.929l14.151-14.151c3.905-3.905,3.905-10.238,0-14.143C283.713,189.386,277.383,189.385,273.475,193.29z"/>
<path d="M479.773,76.509c-4.427-28.748-22.219-53.171-48.816-67.011C397.421-7.937,354.759-0.881,327.217,26.661
	C107.818,246.06,86.384,266.157,84.394,267.942c-0.263,0.212-0.517,0.439-0.759,0.68c-2.239,2.226-3.296,5.379-2.85,8.505
	l2.824,19.802L34.11,346.429c-2.226,2.226-3.273,5.37-2.828,8.485l21.211,148.498c0.535,3.75,3.144,6.875,6.736,8.073
	c1.037,0.345,2.104,0.514,3.162,0.514c2.609,0,5.166-1.023,7.071-2.929l113.164-113.144l19.79,2.826
	c0.471,0.067,0.943,0.1,1.413,0.1c2.621,0,5.16-1.031,7.046-2.905L454.506,153.95C474.688,133.769,484.134,104.819,479.773,76.509z
	 M86.794,266.503c-0.816,0.345-1.59,0.799-2.296,1.355C85.112,267.36,85.891,266.881,86.794,266.503z M69.465,480.786
	l-17.676-123.75l35.356-35.355l7.78,54.445c0.629,4.399,4.086,7.856,8.485,8.485l54.465,7.779L69.465,480.786z M440.388,139.783
	L200.315,378.249l-86.651-12.376l-12.344-86.411c0.099-0.095,0.197-0.19,0.299-0.288c5.229-5.026,14.336-13.945,27.068-26.509
	c27.955-27.585,87.543-86.732,212.672-211.861c21.439-21.441,54.49-27.016,80.367-13.561c20.88,10.864,34.832,29.931,38.278,52.311
	C463.4,101.59,456.057,124.114,440.388,139.783z"/>
<path d="M391.029,59.978c-0.001,0-0.002,0-0.003,0c-7.801,0.001-15.594,3.325-21.358,9.099l-47.884,47.643
	c-3.994-1.915-8.396-2.929-12.957-2.929c-8.013,0-15.546,3.121-21.212,8.786l-70.714,70.714c-5.666,5.666-8.786,13.202-8.786,21.217
	c0,4.524,0.995,8.896,2.88,12.865l-63.667,62.414c-2.272,2.228-3.349,5.403-2.899,8.553l3.53,24.751
	c0.627,4.401,4.086,7.86,8.487,8.488l24.751,3.53c0.472,0.067,0.943,0.1,1.413,0.1c2.599,0,5.117-1.014,6.999-2.859l63.783-62.527
	c4.098,1.967,8.55,2.957,13.008,2.957c7.683,0,15.368-2.925,21.218-8.773l70.714-70.714c9.212-9.213,11.163-22.973,5.863-34.118
	l47.879-47.656c5.661-5.661,8.779-13.197,8.779-21.216c0-8.022-3.12-15.556-8.775-21.205
	C406.118,63.131,398.84,59.978,391.029,59.978z M179.134,314.612l-12.436-1.774l-1.756-12.313l58.959-57.799l14.139,14.139
	L179.134,314.612z M344.189,179.149l-70.713,70.714c-3.901,3.899-10.248,3.901-14.149,0l-28.282-28.282
	c-1.889-1.889-2.929-4.401-2.929-7.074s1.04-5.185,2.929-7.074l70.714-70.714c1.889-1.888,4.398-2.928,7.068-2.928
	s5.181,1.04,7.069,2.929l28.271,28.271c0.001,0.002,0.003,0.003,0.004,0.005c0.002,0.002,0.004,0.003,0.005,0.005l0.011,0.011
	C348.086,168.909,348.086,175.252,344.189,179.149z M397.948,97.359l-46.671,46.454l-14.147-14.147l46.669-46.435
	c2.063-2.067,4.698-3.252,7.229-3.252c2.421,0,4.742,1.094,6.907,3.263c1.881,1.878,2.917,4.386,2.917,7.06
	C400.853,92.98,399.816,95.491,397.948,97.359z"/>
<path d="M301.757,165.01c-3.91,3.9-3.91,10.241,0,14.141c3.91,3.91,10.241,3.91,14.141,0c3.91-3.9,3.91-10.241,0-14.141
	C311.998,161.099,305.668,161.099,301.757,165.01z"/>
<g>
</g>
<g>
</g>
<g>
</g>
<g>
</g>
<g>
</g>
<g>
</g>
<g>
</g>
<g>
</g>
<g>
</g>
<g>
</g>
<g>
</g>
<g>
</g>
<g>
</g>
<g>
</g>
<g>
</g>
</svg>
