<?xml version="1.0" encoding="iso-8859-1"?>
<!-- Generator: Adobe Illustrator 19.0.0, SVG Export Plug-In . SVG Version: 6.00 Build 0)  -->
<svg version="1.1" id="Capa_1" xmlns="http://www.w3.org/2000/svg" xmlns:xlink="http://www.w3.org/1999/xlink" x="0px" y="0px"
	 viewBox="0 0 512 512" style="enable-background:new 0 0 512 512;" xml:space="preserve">
<path style="fill:#AFAFAF;" d="M256,253v129c0,66.27-56.73,120-123,120S10,448.27,10,382V253H256z"/>
<path style="fill:#E2E2E2;" d="M10,253c0-59.49,45.71-108.87,103-118.35c6.53-1.09,13.21-1.65,20-1.65c6.79,0,13.47,0.56,20,1.65
	c25.38,4.2,48.48,16.23,66.35,33.5C241.82,189.86,256,219.86,256,253H10z"/>
<g>
	<path style="fill:#4DBBEB;" d="M153,213v40c0,11.05-8.95,20-20,20s-20-8.95-20-20v-40c0-11.05,8.95-20,20-20
		c5.52,0,10.52,2.24,14.14,5.86S153,207.48,153,213z"/>
	<path style="fill:#4DBBEB;" d="M153,110v24.65c-6.53-1.09-13.21-1.65-20-1.65c-6.79,0-13.47,0.56-20,1.65V110
		c0-11.05,8.95-20,20-20S153,98.95,153,110z"/>
	<path style="fill:#4DBBEB;" d="M502,50v63c0,22.09-17.91,40-40,40s-40-17.91-40-40V50h20h40H502z"/>
</g>
<rect x="442" y="10" style="fill:#E2E2E2;" width="40" height="40"/>
<path d="M50,352c5.52,0,10-4.48,10-10s-4.48-10-10-10s-10,4.48-10,10S44.48,352,50,352z"/>
<path d="M133,452c-39.57,0-73-32.056-73-70c0-5.523-4.478-10-10-10s-10,4.477-10,10c0,48.785,42.589,90,93,90
	c5.522,0,10-4.477,10-10S138.522,452,133,452z"/>
<path d="M502,40h-10V10c0-5.523-4.478-10-10-10h-40c-5.522,0-10,4.477-10,10v30h-10c-5.522,0-10,4.477-10,10v63
	c0,24.146,17.205,44.348,40,48.994V442c0,13.06-5.647,25.535-15.898,35.124C425.986,486.578,412.463,492,399,492
	c-28.233,0-53-23.364-53-50V316.01c0-5.523-4.478-10-10-10s-10,4.477-10,10V442c0,37.944,33.43,70,73,70
	c18.478,0,36.978-7.386,50.761-20.267C464.102,478.318,472,460.656,472,442V161.994c22.795-4.646,40-24.847,40-48.994V50
	C512,44.477,507.522,40,502,40z M452,20h20v20h-20V20z M492,113c0,16.542-13.458,30-30,30s-30-13.458-30-30V60h10h40h10V113z"/>
<path d="M236,20c49.626,0,90,40.374,90,90v123.01c0,5.523,4.478,10,10,10s10-4.477,10-10V110C346,49.346,296.654,0,236,0
	c-50.33,0-95.814,34.161-108.972,80.599C113.338,83.375,103,95.502,103,110v16.448c-27.085,6.294-51.859,21.001-70.467,41.989
	C11.554,192.1,0,222.132,0,253v129c0,34.608,14.099,67.296,39.699,92.042C65.022,498.52,98.157,512,133,512
	s67.978-13.48,93.301-37.958C251.901,449.296,266,416.608,266,382V253c0-34.619-14.1-67.306-39.701-92.041
	c-17.792-17.196-39.541-29.006-63.299-34.497V110c0-11.478-6.482-21.466-15.975-26.509C158.691,46.754,195.414,20,236,20z M133,100
	c5.514,0,10,4.486,10,10v13.399c-6.648-0.5-13.358-0.5-20,0V110C123,104.486,127.486,100,133,100z M133,492
	c-61.252,0-113-50.374-113-110V263h84.72c4.128,11.639,15.243,20,28.28,20s24.152-8.361,28.28-20H246v119
	C246,441.626,194.252,492,133,492z M143,253c0,5.514-4.486,10-10,10s-10-4.486-10-10v-40c0-5.514,4.486-10,10-10
	c2.668,0,5.179,1.041,7.068,2.931c1.891,1.89,2.932,4.4,2.932,7.069V253z M245.521,243H163v-30c0-8.01-3.121-15.543-8.79-21.212
	C148.542,186.121,141.01,183,133,183c-16.542,0-30,13.458-30,30v30H20.487c4.737-48.691,43.624-90.124,94.159-98.486
	C120.664,143.509,126.839,143,133,143c6.161,0,12.336,0.509,18.367,1.516c23.001,3.807,44.106,14.466,61.034,30.826
	C231.572,193.863,243.115,217.59,245.521,243z"/>
<path d="M336,263c-5.52,0-10,4.48-10,10s4.48,10,10,10s10-4.48,10-10S341.52,263,336,263z"/>
<g>
</g>
<g>
</g>
<g>
</g>
<g>
</g>
<g>
</g>
<g>
</g>
<g>
</g>
<g>
</g>
<g>
</g>
<g>
</g>
<g>
</g>
<g>
</g>
<g>
</g>
<g>
</g>
<g>
</g>
</svg>
