<?xml version="1.0" encoding="iso-8859-1"?>
<!-- Generator: Adobe Illustrator 19.0.0, SVG Export Plug-In . SVG Version: 6.00 Build 0)  -->
<svg version="1.1" id="Capa_1" xmlns="http://www.w3.org/2000/svg" xmlns:xlink="http://www.w3.org/1999/xlink" x="0px" y="0px"
	 viewBox="0 0 512 512" style="enable-background:new 0 0 512 512;" xml:space="preserve">
<g>
	<rect x="462" y="462" style="fill:#4DBBEB;" width="40" height="40"/>
	<rect x="462" y="10" style="fill:#4DBBEB;" width="40" height="40"/>
	<path style="fill:#4DBBEB;" d="M93,296l93-90l70,70l10,10l60-60l93,93v103H93V296z"/>
</g>
<path style="fill:#FEB756;" d="M419,93v226l-93-93l-60,60l-10-10l-70-70l-93,90V93H419z"/>
<path style="fill:#FFF5CD;" d="M276,156c11.05,0,20,8.95,20,20s-8.95,20-20,20s-20-8.95-20-20S264.95,156,276,156z"/>
<g>
	<rect x="10" y="462" style="fill:#4DBBEB;" width="40" height="40"/>
	<rect x="10" y="10" style="fill:#4DBBEB;" width="40" height="40"/>
</g>
<path d="M50,0H10C4.478,0,0,4.477,0,10v40c0,5.523,4.478,10,10,10h40c5.522,0,10-4.477,10-10V10C60,4.477,55.522,0,50,0z M40,40H20
	V20h20V40z"/>
<path d="M50,452H10c-5.522,0-10,4.477-10,10v40c0,5.523,4.478,10,10,10h40c5.522,0,10-4.477,10-10v-40C60,456.477,55.522,452,50,452
	z M40,492H20v-20h20V492z"/>
<path d="M502,0h-40c-5.522,0-10,4.477-10,10v40c0,5.523,4.478,10,10,10h40c5.522,0,10-4.477,10-10V10C512,4.477,507.522,0,502,0z
	 M492,40h-20V20h20V40z"/>
<path d="M502,452h-40c-5.522,0-10,4.477-10,10v40c0,5.523,4.478,10,10,10h40c5.522,0,10-4.477,10-10v-40
	C512,456.477,507.522,452,502,452z M492,492h-20v-20h20V492z"/>
<path d="M30,123c5.522,0,10-4.477,10-10V93c0-5.523-4.478-10-10-10s-10,4.477-10,10v20C20,118.523,24.478,123,30,123z"/>
<path d="M20,176c0,5.523,4.478,10,10,10s10-4.477,10-10v-20c0-5.523-4.478-10-10-10s-10,4.477-10,10V176z"/>
<path d="M20,236c0,5.523,4.478,10,10,10s10-4.477,10-10v-20c0-5.523-4.478-10-10-10s-10,4.477-10,10V236z"/>
<path d="M20,296c0,5.523,4.478,10,10,10s10-4.477,10-10v-20c0-5.523-4.478-10-10-10s-10,4.477-10,10V296z"/>
<path d="M20,359c0,5.523,4.478,10,10,10s10-4.477,10-10v-20c0-5.523-4.478-10-10-10s-10,4.477-10,10V359z"/>
<path d="M20,422c0,5.523,4.478,10,10,10s10-4.477,10-10v-20c0-5.523-4.478-10-10-10s-10,4.477-10,10V422z"/>
<path d="M482,123c5.522,0,10-4.477,10-10V93c0-5.523-4.478-10-10-10s-10,4.477-10,10v20C472,118.523,476.478,123,482,123z"/>
<path d="M472,176c0,5.523,4.478,10,10,10s10-4.477,10-10v-20c0-5.523-4.478-10-10-10s-10,4.477-10,10V176z"/>
<path d="M472,236c0,5.523,4.478,10,10,10s10-4.477,10-10v-20c0-5.523-4.478-10-10-10s-10,4.477-10,10V236z"/>
<path d="M472,296c0,5.523,4.478,10,10,10s10-4.477,10-10v-20c0-5.523-4.478-10-10-10s-10,4.477-10,10V296z"/>
<path d="M472,359c0,5.523,4.478,10,10,10s10-4.477,10-10v-20c0-5.523-4.478-10-10-10s-10,4.477-10,10V359z"/>
<path d="M472,422c0,5.523,4.478,10,10,10s10-4.477,10-10v-20c0-5.523-4.478-10-10-10s-10,4.477-10,10V422z"/>
<path d="M113,472H93c-5.522,0-10,4.477-10,10s4.478,10,10,10h20c5.522,0,10-4.477,10-10S118.522,472,113,472z"/>
<path d="M176,472h-20c-5.522,0-10,4.477-10,10s4.478,10,10,10h20c5.522,0,10-4.477,10-10S181.522,472,176,472z"/>
<path d="M236,472h-20c-5.522,0-10,4.477-10,10s4.478,10,10,10h20c5.522,0,10-4.477,10-10S241.522,472,236,472z"/>
<path d="M296,472h-20c-5.522,0-10,4.477-10,10s4.478,10,10,10h20c5.522,0,10-4.477,10-10S301.522,472,296,472z"/>
<path d="M356,472h-20c-5.522,0-10,4.477-10,10s4.478,10,10,10h20c5.522,0,10-4.477,10-10S361.522,472,356,472z"/>
<path d="M419,472h-20c-5.522,0-10,4.477-10,10s4.478,10,10,10h20c5.522,0,10-4.477,10-10S424.522,472,419,472z"/>
<path d="M93,40h20c5.522,0,10-4.477,10-10s-4.478-10-10-10H93c-5.522,0-10,4.477-10,10S87.478,40,93,40z"/>
<path d="M156,40h20c5.522,0,10-4.477,10-10s-4.478-10-10-10h-20c-5.522,0-10,4.477-10,10S150.478,40,156,40z"/>
<path d="M216,40h20c5.522,0,10-4.477,10-10s-4.478-10-10-10h-20c-5.522,0-10,4.477-10,10S210.478,40,216,40z"/>
<path d="M276,40h20c5.522,0,10-4.477,10-10s-4.478-10-10-10h-20c-5.522,0-10,4.477-10,10S270.478,40,276,40z"/>
<path d="M336,40h20c5.522,0,10-4.477,10-10s-4.478-10-10-10h-20c-5.522,0-10,4.477-10,10S330.478,40,336,40z"/>
<path d="M399,40h20c5.522,0,10-4.477,10-10s-4.478-10-10-10h-20c-5.522,0-10,4.477-10,10S393.478,40,399,40z"/>
<path d="M429,318.995V93c0-5.523-4.478-10-10-10H93c-5.522,0-10,4.477-10,10v329c0,5.523,4.478,10,10,10h326c5.522,0,10-4.477,10-10
	V319.005C429,319.002,429,318.998,429,318.995z M409,103v191.857l-75.929-75.929c-3.906-3.905-10.236-3.905-14.143,0L266,271.858
	l-72.929-72.929c-3.862-3.861-10.104-3.91-14.025-0.115L103,272.407V103H409z M103,412v-43h173c5.522,0,10-4.477,10-10
	s-4.478-10-10-10H103v-48.762l82.885-80.211l62.949,62.949l51.629,54.623c1.967,2.081,4.615,3.131,7.27,3.131
	c2.465,0,4.935-0.906,6.867-2.732c4.014-3.794,4.192-10.123,0.398-14.137l-35.334-37.383L326,240.142l83,83V349h-33
	c-5.522,0-10,4.477-10,10s4.478,10,10,10h33v43H103z"/>
<path d="M276,206c16.542,0,30-13.458,30-30s-13.458-30-30-30s-30,13.458-30,30S259.458,206,276,206z M276,166
	c5.514,0,10,4.486,10,10s-4.486,10-10,10s-10-4.486-10-10S270.486,166,276,166z"/>
<path d="M336,349c-5.52,0-10,4.48-10,10s4.48,10,10,10s10-4.48,10-10S341.52,349,336,349z"/>
<g>
</g>
<g>
</g>
<g>
</g>
<g>
</g>
<g>
</g>
<g>
</g>
<g>
</g>
<g>
</g>
<g>
</g>
<g>
</g>
<g>
</g>
<g>
</g>
<g>
</g>
<g>
</g>
<g>
</g>
</svg>
