<?xml version="1.0" encoding="iso-8859-1"?>
<!-- Generator: Adobe Illustrator 19.0.0, SVG Export Plug-In . SVG Version: 6.00 Build 0)  -->
<svg version="1.1" id="Capa_1" xmlns="http://www.w3.org/2000/svg" xmlns:xlink="http://www.w3.org/1999/xlink" x="0px" y="0px"
	 viewBox="0 0 512.001 512.001" style="enable-background:new 0 0 512.001 512.001;" xml:space="preserve">
<path style="fill:#FFF5CD;" d="M502,153l-86.24,49.08L256,293L96.24,202.08L10,153L256,10L502,153z"/>
<polygon style="fill:#4DBBEB;" points="502,256 414.91,306.63 256,399 97.09,306.63 10,256 95.71,203 96.24,202.08 256,293 
	415.76,202.08 416.29,203 "/>
<polygon style="fill:#FD3C65;" points="502,359 256,502 10,359 95.71,309 97.09,306.63 256,399 414.91,306.63 416.29,309 "/>
<path d="M507.039,350.362l-73.601-42.936l73.589-42.781c3.037-1.766,4.925-4.996,4.973-8.509c0.048-3.513-1.752-6.793-4.739-8.642
	l-72.408-44.774l72.094-41.029c3.11-1.77,5.037-5.067,5.054-8.645c0.017-3.579-1.881-6.893-4.975-8.691l-246-143
	c-3.107-1.806-6.943-1.806-10.051,0l-246,143c-3.094,1.798-4.991,5.113-4.975,8.691c0.017,3.578,1.943,6.875,5.054,8.645
	l72.094,41.029L4.74,247.495c-2.987,1.848-4.787,5.128-4.739,8.642c0.048,3.513,1.936,6.743,4.973,8.509l73.589,42.781
	L4.961,350.362c-3.074,1.793-4.964,5.086-4.961,8.646c0.003,3.559,1.897,6.849,4.975,8.638l246,143
	c1.554,0.903,3.289,1.354,5.025,1.354s3.472-0.452,5.025-1.354l246-143c3.077-1.789,4.972-5.079,4.975-8.638
	C512.003,355.448,510.113,352.156,507.039,350.362z M256,21.567l225.943,131.341L256,281.494l-154.813-88.105l-71.13-40.481
	L256,21.567z M96.951,213.99l154.103,87.701c1.533,0.873,3.24,1.309,4.946,1.309c1.706,0,3.413-0.437,4.946-1.309l154.103-87.701
	l67.51,41.745L256,387.433L29.442,255.735L96.951,213.99z M256,490.433L29.872,358.985l68.571-40.002l152.532,88.662
	c1.554,0.903,3.289,1.354,5.025,1.354s3.472-0.452,5.025-1.354l152.532-88.662l68.571,40.002L256,490.433z"/>
<path d="M256,69.25c5.52,0,10-4.48,10-10s-4.48-10-10-10c-5.52,0-10,4.48-10,10S250.48,69.25,256,69.25z"/>
<path d="M291.143,91.381l126.62,70.36c1.538,0.855,3.205,1.261,4.849,1.261c3.514,0,6.922-1.855,8.75-5.145
	c2.683-4.828,0.943-10.916-3.884-13.599l-126.62-70.36c-4.826-2.683-10.916-0.944-13.599,3.884S286.316,88.699,291.143,91.381z"/>
<g>
</g>
<g>
</g>
<g>
</g>
<g>
</g>
<g>
</g>
<g>
</g>
<g>
</g>
<g>
</g>
<g>
</g>
<g>
</g>
<g>
</g>
<g>
</g>
<g>
</g>
<g>
</g>
<g>
</g>
</svg>
