<?xml version="1.0" encoding="iso-8859-1"?>
<!-- Generator: Adobe Illustrator 19.0.0, SVG Export Plug-In . SVG Version: 6.00 Build 0)  -->
<svg version="1.1" id="Capa_1" xmlns="http://www.w3.org/2000/svg" xmlns:xlink="http://www.w3.org/1999/xlink" x="0px" y="0px"
	 viewBox="0 0 512 512" style="enable-background:new 0 0 512 512;" xml:space="preserve">
<path style="fill:#FEB756;" d="M456,216c11.05,0,20,8.95,20,20s-8.95,20-20,20h-60h-80h-60c-11.05,0-20-8.95-20-20s8.95-20,20-20
	l40-83v-20V73c0-11.05,8.95-20,20-20h80c11.05,0,20,8.95,20,20v60L456,216z"/>
<g>
	<path style="fill:#4DBBEB;" d="M396,479v23H76v-23c0-22.09,17.91-40,40-40h160h40h40C378.09,439,396,456.91,396,479z"/>
	<path style="fill:#4DBBEB;" d="M396,30v23h-80V30c0-11.05,8.95-20,20-20h40C387.05,10,396,18.95,396,30z"/>
</g>
<path style="fill:#FFF5CD;" d="M316,256h80c0,22.06-17.94,40-40,40S316,278.06,316,256z"/>
<rect x="316" y="399" style="fill:#FEB756;" width="40" height="40"/>
<path style="fill:#BEE7F4;" d="M296,73v40h-85.35c3.4-5.89,5.35-12.72,5.35-20s-1.95-14.11-5.35-20H296z"/>
<g>
	<path style="fill:#FEB756;" d="M276,439H116c0-16.57,6.72-31.57,17.57-42.43c6.76-6.75,15.13-11.91,24.48-14.84
		c5.67-1.77,11.7-2.73,17.95-2.73h30h10C249.14,379,276,405.86,276,439z"/>
	<path style="fill:#FEB756;" d="M210.65,73c3.4,5.89,5.35,12.72,5.35,20s-1.95,14.11-5.35,20c-6.92,11.96-19.85,20-34.65,20
		c-1.3,0-2.59-0.06-3.86-0.19c-14.51-1.38-26.76-10.53-32.55-23.24C137.28,104.52,136,98.91,136,93c0-22.09,17.91-40,40-40
		C190.8,53,203.73,61.04,210.65,73z"/>
</g>
<g>
	<path style="fill:#BEE7F4;" d="M112.79,251.72L206,379h-30c-6.25,0-12.28,0.96-17.95,2.73L80.79,275.72v-0.01
		C95.21,273.99,107.28,264.6,112.79,251.72z"/>
	<path style="fill:#BEE7F4;" d="M172.14,132.81v0.01l-59.72,86.61h-0.01c-5.79-12.71-18.04-21.86-32.55-23.24v-0.01l59.72-86.61
		h0.01C145.38,122.28,157.63,131.43,172.14,132.81z"/>
</g>
<path style="fill:#FEB756;" d="M116,236c0,5.58-1.15,10.9-3.21,15.72c-5.51,12.88-17.58,22.27-32,23.99
	C79.22,275.9,77.62,276,76,276c-22.09,0-40-17.91-40-40s17.91-40,40-40c1.3,0,2.59,0.06,3.86,0.19
	c14.51,1.38,26.76,10.53,32.55,23.24C114.72,224.48,116,230.09,116,236z"/>
<path d="M462.638,206.74L426,130.716V73c0-13.036-8.361-24.152-20-28.28V30c0-16.542-13.458-30-30-30h-40c-16.542,0-30,13.458-30,30
	v14.72c-8.509,3.018-15.262,9.771-18.28,18.28h-71.74c-9.376-12.457-24.2-20-39.98-20c-27.57,0-50,22.43-50,50
	c0,5.233,0.804,10.328,2.369,15.213l-53.659,77.82C47.735,186.721,26,208.862,26,236c0,27.539,22.38,49.947,49.907,49.998
	l66.682,91.496c-5.885,3.205-11.326,7.249-16.093,12.008c-11.046,11.056-17.925,25.154-19.894,40.396
	C83.511,434.309,66,454.643,66,479v23c0,5.522,4.478,10,10,10h320c5.522,0,10-4.478,10-10v-23c0-24.146-17.205-44.348-40-48.994V399
	c0-5.522-4.478-10-10-10h-40c-5.522,0-10,4.478-10,10v30h-20.726c-4.869-33.876-34.073-60-69.274-60h-4.928l-87.096-118.932
	C125.312,245.518,126,240.81,126,236c0-5.231-0.803-10.324-2.37-15.212l53.667-77.831c15.289-0.401,29.56-7.84,38.682-19.957H286
	v7.716l-36.638,76.024C236.004,209.77,226,221.738,226,236c0,16.542,13.458,30,30,30h51.006c4.646,22.795,24.847,40,48.994,40
	s44.348-17.205,48.994-40H456c16.542,0,30-13.458,30-30C486,221.738,475.996,209.77,462.638,206.74z M336,20h40
	c5.514,0,10,4.486,10,10v13h-60V30C326,24.486,330.486,20,336,20z M96.107,190.233l43.451-63.016
	c4.616,4.911,10.184,8.837,16.335,11.548l-43.451,63.016C107.826,196.871,102.258,192.944,96.107,190.233z M46,236
	c0-16.542,13.458-30,30-30c0.994,0,1.948,0.046,2.914,0.146c10.609,1.009,19.958,7.688,24.396,17.43l0.006,0.013
	c1.781,3.894,2.684,8.07,2.684,12.411c0,4.088-0.81,8.055-2.404,11.787c-4.207,9.836-13.399,16.73-24.01,17.995
	C78.397,265.927,77.19,266,76,266C59.458,266,46,252.542,46,236z M326,409h20v20h-20V409z M276,449h40h40c16.542,0,30,13.458,30,30
	v13H86v-13c0-16.542,13.458-30,30-30H276z M264.995,429H126.994c1.927-9.541,6.607-18.313,13.643-25.354
	c5.709-5.701,12.765-9.979,20.394-12.37c4.837-1.511,9.873-2.276,14.97-2.276h40C240.146,389,260.35,406.206,264.995,429z M176,369
	c-4.668,0-9.3,0.469-13.847,1.383L97.201,281.26c6.099-2.865,11.575-6.931,16.073-11.954L186.282,369H176z M201.995,107.992
	C196.639,117.249,186.678,123,176,123c-0.994,0-1.948-0.046-2.914-0.146c-10.609-1.009-19.958-7.688-24.401-17.442
	C146.903,101.517,146,97.341,146,93c0-16.542,13.458-30,30-30c10.675,0,20.632,5.747,25.989,14.999
	C204.613,82.545,206,87.731,206,93S204.613,103.455,201.995,107.992z M224.983,103c0.668-3.28,1.017-6.629,1.017-10
	s-0.348-6.72-1.017-10H286v20H224.983z M356,286c-13.036,0-24.152-8.361-28.28-20h56.56C380.152,277.639,369.036,286,356,286z
	 M456,246H256c-5.514,0-10-4.486-10-10s4.486-10,10-10c3.84,0,7.341-2.199,9.009-5.658l40-83c0.652-1.354,0.991-2.839,0.991-4.342
	V73c0-5.514,4.486-10,10-10h80c5.514,0,10,4.486,10,10v60c0,1.503,0.339,2.987,0.991,4.342L420.802,166H376c-5.522,0-10,4.478-10,10
	s4.478,10,10,10h54.441l16.55,34.342C448.659,223.801,452.16,226,456,226c5.514,0,10,4.486,10,10S461.514,246,456,246z"/>
<path d="M336,166c-5.52,0-10,4.48-10,10s4.48,10,10,10s10-4.48,10-10S341.52,166,336,166z"/>
<g>
</g>
<g>
</g>
<g>
</g>
<g>
</g>
<g>
</g>
<g>
</g>
<g>
</g>
<g>
</g>
<g>
</g>
<g>
</g>
<g>
</g>
<g>
</g>
<g>
</g>
<g>
</g>
<g>
</g>
</svg>
