<?xml version="1.0" encoding="iso-8859-1"?>
<!-- Generator: Adobe Illustrator 19.0.0, SVG Export Plug-In . SVG Version: 6.00 Build 0)  -->
<svg version="1.1" id="Capa_1" xmlns="http://www.w3.org/2000/svg" xmlns:xlink="http://www.w3.org/1999/xlink" x="0px" y="0px"
	 viewBox="0 0 511.999 511.999" style="enable-background:new 0 0 511.999 511.999;" xml:space="preserve">
<path style="fill:#FFFFFF;" d="M501.881,199.043v282.933c0,11.047-8.948,19.995-19.995,19.995H29.993
	c-11.047,0-19.995-8.948-19.995-19.995V199.043H501.881z"/>
<path style="fill:#AFAFAF;" d="M481.886,119.062H29.993c-11.047,0-19.995,8.948-19.995,19.995v59.986h491.884v-59.986
	C501.881,128.01,492.934,119.062,481.886,119.062z"/>
<path style="fill:#E2E2E2;" d="M310.907,199.403c9.338,9.348,17.086,19.695,23.234,30.703c-31.792,27.593-60.966,48.719-83,60.356
	h-0.01c-1.49-7.468-5.129-14.577-10.917-20.365c-5.579-5.579-12.387-9.158-19.555-10.747v-0.01
	c8.878-16.696,23.135-37.441,41.5-60.296c5.859-7.288,12.137-14.797,18.786-22.455C291.681,182.667,301.769,190.266,310.907,199.403
	z"/>
<g>
	<path style="fill:#FD3C65;" d="M251.131,290.462c2.559,12.677-1.09,26.364-10.917,36.191c-15.616,15.616-84.84,28.283-84.84,28.283
		s12.667-69.224,28.283-84.84c10.038-10.038,24.094-13.627,37.001-10.747c7.168,1.59,13.977,5.169,19.555,10.747
		C246.002,275.885,249.641,282.994,251.131,290.462z"/>
	<path style="fill:#FD3C65;" d="M442.865,119.062c-17.336,20.885-37.701,43.23-60.046,65.575
		c-4.919,4.919-9.828,9.728-14.707,14.407c-11.517,11.057-22.905,21.455-33.972,31.063c-6.149-11.007-13.897-21.355-23.234-30.703
		c-9.138-9.138-19.225-16.736-29.963-22.815c13.647-15.716,28.873-32.062,45.319-48.509c3.049-3.049,6.099-6.059,9.138-9.018
		C410.443,45.97,484.276-2.219,499.282,12.787C510.429,23.935,486.105,66.945,442.865,119.062z"/>
</g>
<path d="M395.906,308.783c-5.651,0-10.233,4.582-10.233,10.233v99.976c0,5.383-4.38,9.763-9.763,9.763
	c-2.604,0-5.056-1.017-6.9-2.861s-2.861-4.296-2.861-6.9v-19.995c0-16.668-13.56-30.228-30.228-30.228
	c-8.071,0-15.661,3.145-21.372,8.856c-5.712,5.711-8.856,13.301-8.856,21.372c0,2.604-1.017,5.056-2.861,6.9
	c-1.845,1.845-4.296,2.861-6.9,2.861s-5.056-1.017-6.9-2.861c-1.845-1.845-2.861-4.296-2.861-6.9c0-8.071-3.145-15.661-8.856-21.372
	c-5.711-5.712-13.301-8.856-21.372-8.856s-15.661,3.145-21.372,8.856c-5.712,5.711-8.856,13.301-8.856,21.372
	c0,2.604-1.017,5.056-2.861,6.9c-1.822,1.822-4.233,2.835-6.8,2.86c-0.301-0.098-2.456-0.942-5.949-5.766
	c-2.909-4.019-4.799-8.159-4.809-8.18c-2.312-5.157-8.367-7.464-13.522-5.155c-5.158,2.311-7.466,8.365-5.155,13.522
	c0.273,0.61,2.79,6.127,6.909,11.815c6.835,9.441,14.381,14.229,22.425,14.229c8.071,0,15.661-3.145,21.372-8.856
	c5.712-5.711,8.856-13.301,8.856-21.372c0-2.604,1.017-5.056,2.861-6.9c1.845-1.845,4.296-2.861,6.9-2.861
	c2.604,0,5.056,1.017,6.9,2.861s2.861,4.296,2.861,6.9c0,8.071,3.145,15.661,8.856,21.372c5.711,5.712,13.301,8.856,21.372,8.856
	c8.071,0,15.661-3.145,21.372-8.856c5.712-5.711,8.856-13.301,8.856-21.372c0-2.604,1.017-5.056,2.861-6.9
	c1.845-1.845,4.296-2.861,6.9-2.861c5.383,0,9.763,4.38,9.763,9.763v19.995c0,8.071,3.145,15.661,8.856,21.372
	c5.711,5.712,13.301,8.856,21.372,8.856c16.668,0,30.228-13.56,30.228-30.228v-99.976
	C406.139,313.364,401.557,308.783,395.906,308.783z"/>
<path d="M195.954,169.051c5.519,0,9.998-4.479,9.998-9.998s-4.479-9.998-9.998-9.998c-5.519,0-9.998,4.479-9.998,9.998
	S190.435,169.051,195.954,169.051z"/>
<path d="M132.969,169.051c5.519,0,9.998-4.479,9.998-9.998s-4.479-9.998-9.998-9.998c-5.519,0-9.998,4.479-9.998,9.998
	S127.45,169.051,132.969,169.051z"/>
<path d="M72.983,169.051c5.519,0,9.998-4.479,9.998-9.998s-4.479-9.998-9.998-9.998s-9.998,4.479-9.998,9.998
	S67.464,169.051,72.983,169.051z"/>
<path d="M481.886,109.065H463.76c15.802-20.202,28.285-38.555,36.501-53.748c8.392-15.514,18.152-37.536,6.09-49.598
	c-11.564-11.564-34.426-5.593-71.945,18.787c-30.658,19.921-67.142,49.868-103.057,84.56H29.993C13.455,109.065,0,122.52,0,139.058
	v342.919c0,16.538,13.455,29.993,29.993,29.993h451.893c16.538,0,29.993-13.455,29.993-29.993V139.058
	C511.879,122.52,498.424,109.065,481.886,109.065z M491.884,139.058v49.988h-99.363c19.908-20.045,38.376-40.189,54.999-59.986
	h34.366C487.399,129.06,491.884,133.545,491.884,139.058z M440.615,44.368c32.212-21.621,47.283-24.893,51.39-24.325
	c0.83,6.104-7.399,32.765-55.615,91.159c-1.108,0.87-2.027,1.965-2.686,3.221c-17.363,20.797-36.839,42.029-57.953,63.143
	c-4.861,4.861-9.759,9.66-14.56,14.265c-8.255,7.924-16.552,15.607-24.767,22.943c-5.392-8.019-11.555-15.541-18.447-22.44
	c-6.685-6.685-13.973-12.69-21.738-17.973c11.644-13.044,24.076-26.195,37.094-39.212c2.982-2.982,6.025-5.986,9.045-8.926
	C376.274,93.207,411.163,64.137,440.615,44.368z M211.876,268.378c2.195,0,4.414,0.241,6.617,0.732
	c5.544,1.229,10.609,4.015,14.65,8.057c4.201,4.201,7.031,9.476,8.184,15.251c0.001,0.008,0.003,0.016,0.004,0.022
	c1.994,9.876-1.067,20.022-8.187,27.143c-7.72,7.721-38.907,16.842-64.985,22.568c5.727-26.077,14.847-57.263,22.568-64.985
	C196.43,271.464,204.014,268.378,211.876,268.378z M256.584,275.884c-2.375-4.715-5.499-9.054-9.302-12.856
	c-3.602-3.603-7.701-6.602-12.147-8.933c8.573-14.255,20.436-30.896,34.815-48.788c4.139-5.149,8.514-10.43,13.046-15.759
	c7.483,4.889,14.472,10.555,20.837,16.922c6.575,6.581,12.394,13.811,17.385,21.553C297.387,248.273,275.007,264.83,256.584,275.884
	z M29.993,129.06h281.25c-13.331,13.629-26.019,27.355-37.799,40.917c-0.019,0.021-0.038,0.043-0.057,0.065
	c-5.56,6.405-10.912,12.775-15.988,19.004H19.995v-49.988C19.995,133.545,24.48,129.06,29.993,129.06z M481.886,491.974H29.993
	c-5.513,0-9.998-4.485-9.998-9.998V209.041h221.728c-10.775,14.35-19.75,27.714-26.495,39.473
	c-14.286-0.971-28.312,4.186-38.641,14.514c-16.961,16.962-28.839,78.039-31.049,90.11c-0.591,3.23,0.442,6.546,2.765,8.869
	c1.893,1.892,4.442,2.928,7.069,2.928c0.598,0,1.2-0.054,1.8-0.163c12.071-2.209,73.15-14.088,90.11-31.049
	c10.07-10.07,15.245-23.768,14.562-37.741c21.968-12.531,49.645-32.981,78.804-58.285c0.018-0.016,0.037-0.031,0.055-0.047
	c10.361-8.995,20.914-18.61,31.415-28.608h119.766v272.936C491.884,487.489,487.399,491.974,481.886,491.974z"/>
<path d="M402.975,286.093c3.909-3.899,3.909-10.238,0-14.137c-3.899-3.909-10.238-3.909-14.137,0
	c-3.909,3.899-3.909,10.238,0,14.137C392.737,290.002,399.076,290.002,402.975,286.093z"/>
<g>
</g>
<g>
</g>
<g>
</g>
<g>
</g>
<g>
</g>
<g>
</g>
<g>
</g>
<g>
</g>
<g>
</g>
<g>
</g>
<g>
</g>
<g>
</g>
<g>
</g>
<g>
</g>
<g>
</g>
</svg>
