<?xml version="1.0" encoding="iso-8859-1"?>
<!-- Generator: Adobe Illustrator 19.0.0, SVG Export Plug-In . SVG Version: 6.00 Build 0)  -->
<svg version="1.1" id="Capa_1" xmlns="http://www.w3.org/2000/svg" xmlns:xlink="http://www.w3.org/1999/xlink" x="0px" y="0px"
	 viewBox="0 0 512 512" style="enable-background:new 0 0 512 512;" xml:space="preserve">
<path style="fill:#FEB756;" d="M502,336v20c0,11.05-8.95,20-20,20h-87.43h-50H276h-40h-78.57h-50H30c-11.05,0-20-8.95-20-20v-20h46
	h400H502z"/>
<polygon style="fill:#935C41;" points="266,240 326,180 456,316 456,336 56,336 56,290 186,160 256,230 "/>
<path style="fill:#BEE7F4;" d="M436,50c11.05,0,20,8.95,20,20v246L326,180l-60,60l-10-10l-70-70L56,290V70c0-11.05,8.95-20,20-20
	H436z"/>
<g>
	<polygon style="fill:#FEB756;" points="394.57,376 446,502 396,502 344.57,376 	"/>
	<path style="fill:#FEB756;" d="M316,50v20H196V50c0-11.05,8.95-20,20-20h20c0-5.52,2.24-10.52,5.86-14.14S250.48,10,256,10
		c11.05,0,20,8.95,20,20h20C307.05,30,316,38.95,316,50z"/>
</g>
<path style="fill:#FFF5CD;" d="M276,110c11.05,0,20,8.95,20,20s-8.95,20-20,20s-20-8.95-20-20S264.95,110,276,110z"/>
<g>
	<rect x="236" y="376" style="fill:#FEB756;" width="40" height="126"/>
	<polygon style="fill:#FEB756;" points="157.43,376 106,502 56,502 107.43,376 	"/>
</g>
<path d="M116,120h40c5.522,0,10-4.478,10-10s-4.478-10-10-10h-40c-5.522,0-10,4.478-10,10S110.478,120,116,120z"/>
<path d="M356,140h40c5.522,0,10-4.478,10-10s-4.478-10-10-10h-40c-5.522,0-10,4.478-10,10S350.478,140,356,140z"/>
<path d="M196,120c5.52,0,10-4.48,10-10s-4.48-10-10-10s-10,4.48-10,10S190.48,120,196,120z"/>
<path d="M502,326h-36V70c0-16.542-13.458-30-30-30H324.28c-4.128-11.639-15.243-20-28.28-20h-11.714C280.159,8.359,269.037,0,256,0
	c-8.01,0-15.543,3.121-21.211,8.789c-3.22,3.22-5.618,7.042-7.089,11.211H216c-13.036,0-24.152,8.361-28.28,20H76
	c-16.542,0-30,13.458-30,30v219.995c0,0.003,0,0.007,0,0.01V326H10c-5.522,0-10,4.478-10,10v20c0,16.542,13.458,30,30,30h62.547
	L46.741,498.221c-1.259,3.084-0.899,6.592,0.958,9.356C49.558,510.342,52.669,512,56,512h50c4.063,0,7.723-2.459,9.259-6.221
	L164.149,386H226v116c0,5.522,4.478,10,10,10h40c5.522,0,10-4.478,10-10V386h51.851l48.891,119.779
	c1.536,3.762,5.195,6.221,9.259,6.221h50c3.331,0,6.442-1.658,8.301-4.423c1.857-2.765,2.217-6.272,0.958-9.356L409.453,386H482
	c16.542,0,30-13.458,30-30v-20C512,330.478,507.522,326,502,326z M216,40h20c5.522,0,10-4.478,10-10
	c0-2.668,1.041-5.178,2.932-7.068S253.332,20,256,20c5.514,0,10,4.486,10,10c0,5.522,4.478,10,10,10h20c5.514,0,10,4.486,10,10v10
	H206V50C206,44.486,210.486,40,216,40z M76,60h110v10c0,5.522,4.478,10,10,10h120c5.522,0,10-4.478,10-10V60h110
	c5.514,0,10,4.486,10,10v221.066L333.229,173.09c-1.859-1.945-4.425-3.059-7.116-3.089C326.075,170,326.037,170,326,170
	c-2.65,0-5.194,1.053-7.071,2.929L266,225.857l-2.929-2.929l-70-70c-3.906-3.904-10.236-3.904-14.143,0L66,265.857V70
	C66,64.486,70.486,60,76,60z M66,294.143l120-120l62.929,62.929l51.73,51.73c1.953,1.952,4.512,2.929,7.071,2.929
	s5.118-0.977,7.071-2.929c3.905-3.905,3.905-10.237,0-14.143L280.143,240l45.696-45.696L446,320.011V326H66V294.143z M99.281,492
	H70.883l43.267-106h28.397L99.281,492z M266,492h-20V386h20V492z M431.117,492h-28.398l-43.265-106h28.397L431.117,492z M492,356
	c0,5.514-4.486,10-10,10h-87.262c-0.041-0.001-0.081,0-0.122,0h-49.878c-0.041-0.001-0.081,0-0.122,0h-187.24
	c-0.036,0-0.073-0.001-0.109,0h-49.891c-0.036,0-0.073-0.001-0.109,0H30c-5.514,0-10-4.486-10-10v-10h472V356z"/>
<path d="M276,160c16.542,0,30-13.458,30-30s-13.458-30-30-30s-30,13.458-30,30S259.458,160,276,160z M276,120
	c5.514,0,10,4.486,10,10c0,5.514-4.486,10-10,10s-10-4.486-10-10S270.486,120,276,120z"/>
<g>
</g>
<g>
</g>
<g>
</g>
<g>
</g>
<g>
</g>
<g>
</g>
<g>
</g>
<g>
</g>
<g>
</g>
<g>
</g>
<g>
</g>
<g>
</g>
<g>
</g>
<g>
</g>
<g>
</g>
</svg>
