<?xml version="1.0" encoding="iso-8859-1"?>
<!-- Generator: Adobe Illustrator 19.0.0, SVG Export Plug-In . SVG Version: 6.00 Build 0)  -->
<svg version="1.1" id="Capa_1" xmlns="http://www.w3.org/2000/svg" xmlns:xlink="http://www.w3.org/1999/xlink" x="0px" y="0px"
	 viewBox="0 0 512 512" style="enable-background:new 0 0 512 512;" xml:space="preserve">
<path style="fill:#FFFFFF;" d="M501.999,229.999c0,121.309-98.689,219.999-219.999,219.999
	c-121.293,0-219.999-98.704-219.999-219.999C62.001,108.689,160.691,10,282,10C403.306,10,501.999,108.686,501.999,229.999z"/>
<path style="fill:#FD3C65;" d="M282,389.998c-88.225,0-159.999-71.775-159.999-159.999S193.775,70,282,70
	s159.999,71.775,159.999,159.999S370.224,389.998,282,389.998z"/>
<path style="fill:#FFFFFF;" d="M282,332.998C225.205,332.998,179,286.793,179,229.999S225.205,126.999,282,126.999
	s102.999,46.205,102.999,102.999S338.795,332.998,282,332.998z"/>
<path style="fill:#FD3C65;" d="M310.284,201.715c7.239,7.239,11.716,17.239,11.716,28.284c0,22.09-17.91,40-40,40
	c-11.08,0-21.12-4.52-28.28-11.72c-7.2-7.16-11.72-17.2-11.72-28.28c0-22.09,17.91-40,40-40
	C293.045,189.999,303.045,194.476,310.284,201.715z"/>
<path style="fill:#4DBBEB;" d="M157.371,411.198l-64.94,64.94l-56.57-56.57l64.94-64.93v-0.01l43.4-43.4l5.52-5.52l39.17-39.17
	c10.14,25.84,30.73,46.43,56.57,56.57l-19.17,19.17l-25.52,25.52L157.371,411.198z"/>
<g>
	<path style="fill:#FEB756;" d="M92.431,476.137l-14.15,14.14c-15.62,15.63-40.94,15.63-56.56,0c-7.82-7.81-11.72-18.04-11.72-28.28
		s3.9-20.47,11.72-28.28l14.14-14.15L92.431,476.137z"/>
	<path style="fill:#FEB756;" d="M277,234.999l-10.61,31.84l-17.67,53.01l-3.26,3.26c-25.84-10.14-46.43-30.73-56.57-56.57l3.26-3.26
		l53.01-17.67L277,234.999z"/>
</g>
<path d="M282,0C155.179,0,52.001,103.177,52.001,229.999c0,43.98,12.408,86.441,35.953,123.343L28.798,412.49
	c-0.003,0.003-0.007,0.006-0.01,0.01l-14.135,14.144c-9.447,9.437-14.652,21.993-14.652,35.354c0,13.361,5.204,25.917,14.646,35.35
	C24.09,506.796,36.646,512,50.001,512s25.91-5.204,35.35-14.649L99.5,483.21l0.001-0.001l0.001-0.001l59.16-59.16
	c36.9,23.543,79.361,35.949,123.338,35.949c126.821,0,229.999-103.177,229.999-229.999S408.822,0,282,0z M132.001,229.999
	C132.001,147.289,199.29,80,282,80s149.999,67.29,149.999,149.999S364.709,379.998,282,379.998
	c-22.438,0-44.527-5.055-64.614-14.674l30.673-30.673c10.922,3.546,22.308,5.347,33.941,5.347
	c60.654,0,109.999-49.346,109.999-109.999c0-44.17-26.251-83.9-66.879-101.218c-5.083-2.166-10.955,0.197-13.12,5.278
	c-2.166,5.08,0.197,10.954,5.278,13.12c33.241,14.17,54.721,46.679,54.721,82.82c0,49.626-40.374,89.999-89.999,89.999
	c-7.454,0-14.776-0.916-21.891-2.696l12.717-38.156c3.006,0.558,6.068,0.852,9.173,0.852c27.57,0,50-22.43,50-50s-22.43-50-50-50
	c-27.57,0-50,22.43-50,50c0,3.105,0.294,6.167,0.852,9.173l-38.156,12.717c-1.78-7.114-2.696-14.436-2.696-21.891
	c0-36.142,21.479-68.65,54.721-82.82c5.081-2.166,7.444-8.04,5.278-13.12c-2.164-5.08-8.041-7.442-13.12-5.278
	c-40.627,17.32-66.878,57.05-66.878,101.219c0,11.634,1.801,23.021,5.347,33.941l-30.673,30.672
	C137.057,274.524,132.001,252.437,132.001,229.999z M252,229.999c0-16.542,13.458-30,30-30c16.542,0,30,13.458,30,30
	s-13.458,30-30,30c-0.923,0-1.839-0.047-2.749-0.129l7.236-21.71c1.197-3.593,0.262-7.554-2.416-10.232
	c-2.679-2.679-6.643-3.611-10.232-2.416l-21.71,7.236C252.047,231.838,252,230.922,252,229.999z M261.192,250.808l-19.831,59.496
	c-17.064-8.653-31.011-22.599-39.665-39.666L261.192,250.808z M185.947,283.623c9.937,17.759,24.67,32.492,42.427,42.428
	l-78.016,78.016c-0.042,0.042-0.084,0.083-0.126,0.126l-57.802,57.802l-42.427-42.427l57.867-57.859
	c0.03-0.03,0.054-0.062,0.083-0.092L185.947,283.623z M71.208,483.208C65.542,488.878,58.011,492,50.001,492
	s-15.541-3.122-21.213-8.798c-5.667-5.66-8.787-13.19-8.787-21.205c0-8.015,3.12-15.545,8.793-21.211l7.069-7.074l42.423,42.423
	L71.208,483.208z M282,439.997c-38.658,0-76.033-10.498-108.824-30.463l29.327-29.327c24.404,12.955,51.718,19.79,79.498,19.79
	c93.737,0,169.999-76.262,169.999-169.999S375.737,60,282,60s-169.999,76.262-169.999,169.999c0,27.78,6.835,55.094,19.79,79.497
	l-29.327,29.327c-19.965-32.792-30.463-70.166-30.463-108.823C72.001,114.205,166.207,20,282,20s209.999,94.205,209.999,209.999
	S397.793,439.997,282,439.997z"/>
<path d="M282,139.999c5.52,0,10-4.48,10-10c0-5.52-4.48-10-10-10s-10,4.48-10,10S276.48,139.999,282,139.999z"/>
<g>
</g>
<g>
</g>
<g>
</g>
<g>
</g>
<g>
</g>
<g>
</g>
<g>
</g>
<g>
</g>
<g>
</g>
<g>
</g>
<g>
</g>
<g>
</g>
<g>
</g>
<g>
</g>
<g>
</g>
</svg>
