<?xml version="1.0" encoding="iso-8859-1"?>
<!-- Generator: Adobe Illustrator 19.0.0, SVG Export Plug-In . SVG Version: 6.00 Build 0)  -->
<svg version="1.1" id="Capa_1" xmlns="http://www.w3.org/2000/svg" xmlns:xlink="http://www.w3.org/1999/xlink" x="0px" y="0px"
	 viewBox="0 0 512 512" style="enable-background:new 0 0 512 512;" xml:space="preserve">
<path style="fill:#FD3C65;" d="M496.154,15.856c-3.899-3.899-9.018-5.859-14.136-5.859c-5.119,0-10.237,1.96-14.136,5.859
	l-55.466,55.456L391.21,50.107l-40.39,40.39l-9.098,9.098c-12.457,12.457-16.966,29.852-13.527,45.878
	c1.95,9.088,6.458,17.745,13.527,24.814c7.128,7.128,15.856,11.647,25.024,13.567c15.966,3.359,33.262-1.16,45.668-13.567
	l9.528-9.528l39.96-39.96l-21.205-21.205l55.456-55.466C503.962,36.321,503.962,23.664,496.154,15.856z"/>
<g>
	<path style="fill:#E2E2E2;" d="M412.415,170.287c-12.407,12.407-29.702,16.926-45.668,13.567l-58.255,122.989l-48.468,102.304
		c19.965,9.458,43.819,0.94,53.276-19.025l25.224-53.246l83.419-176.115L412.415,170.287z"/>
	<path style="fill:#E2E2E2;" d="M350.82,90.497l-175.525,83.149l-53.256,25.224c-19.965,9.458-28.483,33.302-19.025,53.266
		l102.314-48.458l122.869-58.205c-3.439-16.026,1.07-33.422,13.527-45.878L350.82,90.497z"/>
</g>
<path d="M87.227,99.596c3.904-3.904,3.904-10.234,0-14.139c-3.905-3.903-10.233-3.903-14.139,0
	C32.382,126.163,6.857,180.158,1.211,237.495c-5.566,56.541,8.311,113.714,39.075,160.988c1.917,2.944,5.12,4.546,8.39,4.546
	c1.869,0,3.76-0.523,5.443-1.619c4.628-3.012,5.937-9.205,2.927-13.832C-1.841,297.086,10.852,175.972,87.227,99.596z"/>
<path d="M412.413,424.781c-76.377,76.377-197.489,89.07-287.982,30.181c-4.629-3.013-10.82-1.701-13.832,2.927
	c-3.011,4.628-1.701,10.82,2.927,13.832C153.971,498.042,201.653,512,249.994,512c8.163,0,16.351-0.399,24.52-1.203
	c57.336-5.645,111.331-31.171,152.037-71.878c3.904-3.904,3.904-10.234,0-14.139C422.646,420.877,416.318,420.877,412.413,424.781z"
	/>
<path d="M73.09,424.782c-3.909,3.899-3.909,10.237,0,14.136c3.899,3.909,10.237,3.909,14.136,0c3.909-3.899,3.909-10.237,0-14.136
	C83.327,420.873,76.99,420.873,73.09,424.782z"/>
<path d="M503.222,8.785C497.555,3.12,490.024,0,482.016,0c-8.008,0-15.538,3.12-21.205,8.786l-48.397,48.389l-14.136-14.136
	c-3.905-3.903-10.233-3.903-14.139,0l-39.165,39.165L177.38,161.592l-33.655-33.655c-3.905-3.903-10.233-3.903-14.139,0
	c-3.904,3.904-3.904,10.234,0,14.139l28.607,28.607l-40.434,19.153c-12.069,5.718-21.19,15.791-25.681,28.365
	c-3.349,9.376-3.822,19.305-1.478,28.753l-28.427,13.464c-4.99,2.363-7.119,8.325-4.757,13.315c1.71,3.608,5.299,5.721,9.043,5.721
	c1.435,0,2.891-0.31,4.272-0.964l36.561-17.316l95.947-45.441l39.451,39.451l-14.138,14.138c-3.905,3.903-3.907,10.233-0.004,14.139
	c1.952,1.954,4.512,2.93,7.071,2.93c2.558,0,5.116-0.976,7.067-2.926l14.142-14.142l39.608,39.608l-45.424,95.894
	c-0.008,0.016-0.017,0.03-0.024,0.046s-0.012,0.032-0.02,0.048l-17.297,36.514c-2.363,4.99-0.234,10.951,4.756,13.314
	c1.382,0.655,2.838,0.965,4.272,0.965c3.743,0,7.333-2.111,9.042-5.721l13.477-28.448c3.93,0.967,7.906,1.454,11.853,1.454
	c18.73,0,36.726-10.568,45.262-28.591l19.149-40.428l28.45,28.45c1.953,1.952,4.511,2.928,7.069,2.928s5.117-0.977,7.069-2.928
	c3.904-3.904,3.904-10.234,0-14.139l-33.499-33.5l79.662-168.179l38.737-38.737c3.904-3.904,3.904-10.234,0-14.139l-14.136-14.136
	l48.388-48.396C514.915,39.506,514.915,20.48,503.222,8.785z M320.083,116.119c-2.475,7.488-3.455,15.454-2.823,23.472
	l-109.845,52.036l-15.021-15.021L320.083,116.119z M109.305,238.093c-0.458-4.399,0.07-8.88,1.602-13.168
	c2.695-7.545,8.169-13.59,15.411-17.021l46.887-22.21l15.02,15.02L109.305,238.093z M270.968,255.18l14.142-14.142
	c3.903-3.905,3.901-10.235-0.004-14.139c-3.906-3.902-10.234-3.9-14.139,0.004l-14.138,14.138l-34.401-34.401l99.838-47.295
	c2.969,6.668,7.147,12.771,12.389,18.011c5.296,5.295,11.463,9.501,18.2,12.472l-47.327,99.91L270.968,255.18z M304.264,385.84
	c-3.431,7.242-9.477,12.716-17.026,15.411c-4.288,1.531-8.77,2.058-13.17,1.603l37.383-78.912l15.018,15.018L304.264,385.84z
	 M320.542,304.754l52.106-110.006c1.5,0.112,2.999,0.188,4.493,0.188c6.512,0,12.932-1.076,19.032-3.126L335.56,319.772
	L320.542,304.754z M405.345,163.218c-9.592,9.592-23.252,13.647-36.551,10.85c-7.572-1.586-14.489-5.338-20.003-10.849
	c-5.195-5.197-8.809-11.658-10.54-18.734c-0.074-0.783-0.235-1.566-0.503-2.335c-2.368-12.957,1.699-26.138,11.044-35.484
	l42.418-42.418l56.553,56.553L405.345,163.218z M489.083,37.06l-48.388,48.396l-14.142-14.143l48.396-48.387
	c1.891-1.891,4.4-2.931,7.067-2.931c2.668,0,5.179,1.041,7.067,2.929C492.98,26.821,492.98,33.163,489.083,37.06z"/>
<path d="M369.996,127.868c-3.899,3.909-3.899,10.237,0,14.146c3.909,3.899,10.237,3.899,14.146,0c3.899-3.909,3.899-10.237,0-14.146
	C380.233,123.969,373.905,123.969,369.996,127.868z"/>
<g>
</g>
<g>
</g>
<g>
</g>
<g>
</g>
<g>
</g>
<g>
</g>
<g>
</g>
<g>
</g>
<g>
</g>
<g>
</g>
<g>
</g>
<g>
</g>
<g>
</g>
<g>
</g>
<g>
</g>
</svg>
