<?xml version="1.0" encoding="iso-8859-1"?>
<!-- Generator: Adobe Illustrator 19.0.0, SVG Export Plug-In . SVG Version: 6.00 Build 0)  -->
<svg version="1.1" id="Capa_1" xmlns="http://www.w3.org/2000/svg" xmlns:xlink="http://www.w3.org/1999/xlink" x="0px" y="0px"
	 viewBox="0 0 511.998 511.998" style="enable-background:new 0 0 511.998 511.998;" xml:space="preserve">
<path style="fill:#FEB756;" d="M369.888,155.04c7.81,7.81,7.81,20.48,0,28.29l-96.38,96.76l-0.19-0.19l-42.24-42.24l96.38-96.76
	c7.81-7.81,20.48-7.81,28.29,0L369.888,155.04z"/>
<path style="fill:#4DBBEB;" d="M273.508,280.09L58.278,496.14c-7.81,7.81-20.47,7.81-28.28,0L15.858,482
	c-7.81-7.81-7.81-20.47,0-28.28l215.22-216.06l42.24,42.24L273.508,280.09z"/>
<path d="M201.998,190h40c5.522,0,10-4.477,10-10s-4.478-10-10-10h-40c-5.522,0-10,4.477-10,10S196.476,190,201.998,190z"/>
<path d="M461.998,170h-40c-5.522,0-10,4.477-10,10s4.478,10,10,10h40c5.522,0,10-4.477,10-10S467.521,170,461.998,170z"/>
<path d="M218.858,66.86c3.91-3.9,3.91-10.23,0-14.14c-3.9-3.9-10.23-3.9-14.14,0c-3.9,3.91-3.9,10.24,0,14.14
	C208.628,70.77,214.958,70.77,218.858,66.86z"/>
<path d="M161.998,190c5.52,0,10-4.48,10-10s-4.48-10-10-10s-10,4.48-10,10S156.478,190,161.998,190z"/>
<path d="M376.959,147.969l-14.14-14.14c-5.666-5.666-13.2-8.787-21.216-8.787c-8.017,0-15.551,3.121-21.23,8.8l-94.783,95.155
	c-0.632,0.396-1.233,0.86-1.782,1.411c-0.552,0.554-1.018,1.16-1.413,1.797L8.788,446.649C3.121,452.314,0,459.848,0,467.86
	s3.121,15.545,8.787,21.211l14.14,14.139c5.666,5.667,13.198,8.788,21.211,8.788s15.546-3.121,21.226-8.801l215.229-216.05l0,0
	l96.366-96.746c5.666-5.666,8.787-13.201,8.787-21.216S382.625,153.635,376.959,147.969z M51.207,489.068
	c-1.889,1.889-4.399,2.93-7.069,2.93s-5.18-1.041-7.068-2.93l-14.14-14.14C21.041,473.04,20,470.53,20,467.86
	s1.041-5.18,2.943-7.083L231.09,251.814l28.288,28.288L51.207,489.068z M362.803,176.273l-89.308,89.661l-28.289-28.288
	l89.324-89.674c1.889-1.888,4.4-2.928,7.074-2.928c2.673,0,5.185,1.04,7.073,2.928l14.14,14.141c1.889,1.889,2.93,4.401,2.93,7.074
	S364.705,174.37,362.803,176.273z"/>
<path d="M331.998,100c5.522,0,10-4.477,10-10V50c0-5.523-4.478-10-10-10s-10,4.477-10,10v40C321.998,95.523,326.476,100,331.998,100
	z"/>
<path d="M331.998,260c-5.522,0-10,4.477-10,10v40c0,5.523,4.478,10,10,10s10-4.477,10-10v-40
	C341.998,264.477,337.521,260,331.998,260z"/>
<path d="M261.287,123.431c1.953,1.953,4.512,2.929,7.071,2.929s5.118-0.977,7.071-2.929c3.905-3.905,3.905-10.237,0-14.142
	l-28.28-28.28c-3.906-3.905-10.236-3.905-14.143,0c-3.905,3.905-3.905,10.237,0,14.142L261.287,123.431z"/>
<path d="M402.709,236.569c-3.906-3.905-10.236-3.905-14.143,0c-3.905,3.905-3.905,10.237,0,14.142l28.28,28.28
	c1.953,1.953,4.512,2.929,7.071,2.929s5.118-0.977,7.071-2.929c3.905-3.905,3.905-10.237,0-14.142L402.709,236.569z"/>
<path d="M395.638,126.36c2.559,0,5.118-0.977,7.071-2.929l28.28-28.28c3.905-3.905,3.905-10.237,0-14.142s-10.235-3.905-14.143,0
	l-28.28,28.28c-3.905,3.905-3.905,10.237,0,14.142C390.52,125.384,393.078,126.36,395.638,126.36z"/>
<path d="M331.998,20c5.52,0,10-4.48,10-10s-4.48-10-10-10s-10,4.48-10,10S326.478,20,331.998,20z"/>
<path d="M331.998,340c-5.52,0-10,4.48-10,10s4.48,10,10,10s10-4.48,10-10S337.518,340,331.998,340z"/>
<path d="M501.998,170c-5.52,0-10,4.48-10,10s4.48,10,10,10s10-4.48,10-10S507.518,170,501.998,170z"/>
<path d="M459.278,66.86c3.9-3.9,3.9-10.23,0-14.14c-3.91-3.9-10.24-3.9-14.14,0c-3.91,3.91-3.91,10.24,0,14.14
	C449.038,70.77,455.368,70.77,459.278,66.86z"/>
<path d="M445.138,293.14c-3.91,3.9-3.91,10.23,0,14.14c3.9,3.9,10.23,3.9,14.14,0c3.9-3.91,3.9-10.24,0-14.14
	C455.368,289.23,449.038,289.23,445.138,293.14z"/>
<g>
</g>
<g>
</g>
<g>
</g>
<g>
</g>
<g>
</g>
<g>
</g>
<g>
</g>
<g>
</g>
<g>
</g>
<g>
</g>
<g>
</g>
<g>
</g>
<g>
</g>
<g>
</g>
<g>
</g>
</svg>
