<?xml version="1.0" encoding="iso-8859-1"?>
<!-- Generator: Adobe Illustrator 19.0.0, SVG Export Plug-In . SVG Version: 6.00 Build 0)  -->
<svg version="1.1" id="Capa_1" xmlns="http://www.w3.org/2000/svg" xmlns:xlink="http://www.w3.org/1999/xlink" x="0px" y="0px"
	 viewBox="0 0 512.001 512.001" style="enable-background:new 0 0 512.001 512.001;" xml:space="preserve">
<polyline style="fill:#4DBBEB;" points="55.723,276.383 257.252,501.986 456.278,276.383 396.275,170.236 256.001,170.236 
	115.806,170.236 55.723,276.383 "/>
<g>
	<polygon style="fill:#BEE7F4;" points="396.275,170.236 456.278,276.383 352.134,276.383 351.904,276.123 	"/>
	<path style="fill:#BEE7F4;" d="M161.059,276.383l-0.06-0.15l95.002-105.997l95.903,105.887l-0.11,0.26l-94.541,225.603
		L161.059,276.383z"/>
	<polygon style="fill:#BEE7F4;" points="115.806,170.236 160.999,276.233 160.869,276.383 55.723,276.383 	"/>
</g>
<path d="M464.462,282.143c0.063-0.089,0.126-0.178,0.187-0.27c0.113-0.172,0.218-0.349,0.32-0.527
	c0.046-0.08,0.095-0.158,0.139-0.239c0.134-0.25,0.256-0.505,0.368-0.764c0.042-0.098,0.078-0.2,0.117-0.3
	c0.068-0.174,0.134-0.348,0.192-0.526c0.039-0.12,0.075-0.24,0.11-0.362c0.05-0.174,0.095-0.349,0.135-0.526
	c0.026-0.113,0.053-0.225,0.075-0.339c0.055-0.286,0.102-0.575,0.132-0.865c0.003-0.032,0.003-0.064,0.006-0.096
	c0.026-0.277,0.039-0.556,0.042-0.834c0-0.036,0.005-0.071,0.005-0.108c0-0.054-0.007-0.107-0.008-0.161
	c-0.004-0.228-0.015-0.457-0.035-0.686c-0.008-0.091-0.013-0.183-0.024-0.273c-0.031-0.276-0.072-0.553-0.126-0.827
	c-0.015-0.076-0.034-0.15-0.05-0.225c-0.051-0.228-0.108-0.457-0.175-0.682c-0.037-0.123-0.079-0.244-0.12-0.365
	c-0.053-0.157-0.11-0.314-0.172-0.47c-0.051-0.128-0.103-0.255-0.159-0.381c-0.066-0.148-0.139-0.295-0.212-0.442
	c-0.06-0.118-0.117-0.237-0.181-0.353c-0.011-0.021-0.021-0.042-0.032-0.063l-60.003-106.147c-0.03-0.053-0.068-0.098-0.099-0.15
	c-0.167-0.285-0.349-0.562-0.545-0.829c-0.051-0.07-0.1-0.141-0.152-0.21c-0.249-0.323-0.516-0.636-0.805-0.928
	c-0.004-0.004-0.009-0.008-0.014-0.013c-0.274-0.276-0.571-0.533-0.879-0.778c-0.077-0.061-0.155-0.118-0.233-0.176
	c-0.248-0.185-0.508-0.359-0.777-0.524c-0.087-0.053-0.172-0.109-0.261-0.159c-0.341-0.194-0.693-0.375-1.064-0.531
	c-0.004-0.002-0.008-0.004-0.013-0.006c-0.001-0.001-0.003-0.001-0.004-0.002c-0.372-0.156-0.75-0.28-1.129-0.389
	c-0.106-0.03-0.213-0.053-0.32-0.08c-0.298-0.075-0.597-0.135-0.897-0.182c-0.107-0.016-0.212-0.034-0.32-0.047
	c-0.401-0.049-0.802-0.08-1.201-0.08c-0.001,0-0.002,0-0.004,0h-0.002c-0.017,0-0.033,0-0.05,0H256.001h-0.026H115.822
	c-0.415-0.001-0.83,0.031-1.247,0.082c-0.097,0.012-0.192,0.029-0.288,0.044c-0.303,0.047-0.606,0.108-0.908,0.184
	c-0.112,0.028-0.223,0.054-0.333,0.086c-0.327,0.094-0.652,0.206-0.974,0.335c-0.054,0.022-0.109,0.037-0.163,0.06
	c-0.009,0.004-0.019,0.006-0.028,0.01c-0.362,0.154-0.706,0.332-1.039,0.523c-0.084,0.048-0.163,0.102-0.245,0.152
	c-0.27,0.164-0.53,0.339-0.779,0.526c-0.082,0.061-0.163,0.123-0.244,0.187c-0.278,0.221-0.544,0.455-0.794,0.702
	c-0.033,0.032-0.068,0.061-0.1,0.094c-0.287,0.291-0.554,0.6-0.801,0.922c-0.047,0.061-0.089,0.126-0.135,0.188
	c-0.197,0.269-0.381,0.548-0.549,0.835c-0.03,0.052-0.068,0.097-0.098,0.149L47.011,271.452c-0.012,0.021-0.021,0.042-0.032,0.063
	c-0.066,0.119-0.126,0.242-0.187,0.363c-0.072,0.143-0.143,0.286-0.208,0.432c-0.057,0.128-0.11,0.257-0.162,0.388
	c-0.061,0.153-0.117,0.308-0.17,0.464c-0.042,0.123-0.085,0.246-0.122,0.372c-0.064,0.217-0.119,0.436-0.168,0.655
	c-0.016,0.071-0.036,0.139-0.051,0.21c-0.058,0.288-0.1,0.58-0.133,0.871c-0.01,0.089-0.015,0.178-0.023,0.268
	c-0.019,0.229-0.031,0.459-0.035,0.688c-0.001,0.053-0.008,0.104-0.008,0.158c0,0.039,0.005,0.077,0.006,0.116
	c0.003,0.262,0.016,0.525,0.04,0.786c0.004,0.049,0.005,0.099,0.01,0.148c0.031,0.29,0.076,0.58,0.132,0.866
	c0.022,0.112,0.05,0.222,0.075,0.333c0.041,0.178,0.086,0.356,0.136,0.532c0.035,0.123,0.072,0.244,0.112,0.365
	c0.057,0.171,0.12,0.34,0.186,0.51c0.042,0.106,0.08,0.214,0.126,0.319c0.112,0.26,0.234,0.517,0.37,0.768
	c0.035,0.065,0.075,0.125,0.111,0.189c0.11,0.195,0.225,0.388,0.349,0.576c0.058,0.088,0.12,0.172,0.18,0.258
	c0.112,0.159,0.228,0.316,0.351,0.47c0.068,0.085,0.137,0.169,0.208,0.252c0.051,0.06,0.097,0.123,0.15,0.181l201.529,225.603
	c0.247,0.277,0.511,0.538,0.785,0.783c0.04,0.035,0.083,0.065,0.123,0.1c0.289,0.251,0.592,0.482,0.905,0.697
	c0.102,0.07,0.206,0.136,0.31,0.202c0.292,0.184,0.592,0.352,0.9,0.506c0.085,0.042,0.166,0.089,0.252,0.129
	c0.389,0.179,0.788,0.332,1.198,0.461c0.098,0.031,0.198,0.053,0.297,0.08c0.329,0.092,0.663,0.167,1.001,0.226
	c0.124,0.021,0.247,0.043,0.373,0.06c0.437,0.058,0.876,0.098,1.323,0.098c0.011,0,0.021,0,0.031,0
	c0.448-0.001,0.889-0.043,1.327-0.103c0.125-0.017,0.247-0.039,0.372-0.061c0.339-0.06,0.675-0.136,1.005-0.23
	c0.099-0.028,0.199-0.05,0.297-0.082c0.41-0.13,0.81-0.286,1.2-0.468c0.085-0.04,0.166-0.087,0.25-0.129
	c0.309-0.155,0.61-0.325,0.902-0.513c0.105-0.067,0.208-0.134,0.311-0.205c0.31-0.215,0.61-0.446,0.896-0.696
	c0.043-0.038,0.09-0.071,0.133-0.109c0.274-0.249,0.538-0.512,0.786-0.793L463.79,283.009c0.043-0.049,0.08-0.101,0.122-0.15
	c0.071-0.083,0.138-0.168,0.206-0.253C464.236,282.454,464.351,282.299,464.462,282.143z M114.54,192.8l31.368,73.569h-73.01
	L114.54,192.8z M215.945,266.369h-32.656l72.751-81.174l73.519,81.174h-33.502c-5.53,0-10.014,4.483-10.014,10.014
	s4.484,10.014,10.014,10.014h40.683l-79.567,189.87l-80.956-189.87h39.729c5.53,0,10.014-4.483,10.014-10.014
	S221.475,266.369,215.945,266.369z M278.581,180.25h102.64l-32.468,77.478L278.581,180.25z M164.041,257.836l-33.079-77.586h102.616
	L164.041,257.836z M154.444,286.397l69.721,163.517L78.096,286.397H154.444z M358.455,286.397h75.636L290.017,449.71
	L358.455,286.397z M366.847,266.369l30.767-73.418l41.501,73.418H366.847z"/>
<path d="M256.001,100.139c5.53,0,10.014-4.483,10.014-10.014V50.069c0-5.531-4.484-10.014-10.014-10.014
	c-5.53,0-10.014,4.483-10.014,10.014v40.056C245.987,95.656,250.471,100.139,256.001,100.139z"/>
<path d="M167.216,116.601c1.856,3.213,5.221,5.009,8.683,5.009c1.697,0,3.42-0.433,4.996-1.343c4.79-2.765,6.432-8.888,3.667-13.679
	L164.535,71.89c-2.766-4.79-8.889-6.435-13.679-3.667c-4.79,2.765-6.432,8.888-3.667,13.679L167.216,116.601z"/>
<path d="M331.106,120.268c1.577,0.91,3.298,1.343,4.996,1.343c3.462,0,6.827-1.796,8.683-5.009l20.028-34.698
	c2.765-4.79,1.123-10.914-3.667-13.679c-4.793-2.766-10.914-1.124-13.679,3.667l-20.028,34.698
	C324.674,111.378,326.316,117.503,331.106,120.268z"/>
<path d="M140.841,50.881c4.787-2.764,6.429-8.882,3.665-13.679c-2.764-4.787-8.892-6.429-13.679-3.665
	c-4.787,2.774-6.429,8.892-3.665,13.679C129.926,52.012,136.054,53.654,140.841,50.881z"/>
<path d="M256.001,20.028c5.528,0,10.014-4.486,10.014-10.014S261.528,0,256.001,0c-5.528,0-10.014,4.486-10.014,10.014
	S250.473,20.028,256.001,20.028z"/>
<path d="M256.001,286.397c5.528,0,10.014-4.486,10.014-10.014s-4.486-10.014-10.014-10.014c-5.528,0-10.014,4.486-10.014,10.014
	S250.473,286.397,256.001,286.397z"/>
<path d="M371.16,50.881c4.787,2.774,10.915,1.132,13.679-3.665c2.764-4.787,1.122-10.905-3.665-13.679
	c-4.787-2.764-10.915-1.122-13.679,3.665C364.731,41.998,366.374,48.117,371.16,50.881z"/>
<g>
</g>
<g>
</g>
<g>
</g>
<g>
</g>
<g>
</g>
<g>
</g>
<g>
</g>
<g>
</g>
<g>
</g>
<g>
</g>
<g>
</g>
<g>
</g>
<g>
</g>
<g>
</g>
<g>
</g>
</svg>
