<?xml version="1.0" encoding="iso-8859-1"?>
<!-- Generator: Adobe Illustrator 19.0.0, SVG Export Plug-In . SVG Version: 6.00 Build 0)  -->
<svg version="1.1" id="Capa_1" xmlns="http://www.w3.org/2000/svg" xmlns:xlink="http://www.w3.org/1999/xlink" x="0px" y="0px"
	 viewBox="0 0 512 512" style="enable-background:new 0 0 512 512;" xml:space="preserve">
<g>
	<rect x="462" y="462" style="fill:#4DBBEB;" width="40" height="40"/>
	<rect x="462" y="10" style="fill:#4DBBEB;" width="40" height="40"/>
</g>
<path style="fill:#BEE7F4;" d="M419,90v332H93V90H419z"/>
<g>
	<polygon style="fill:#4DBBEB;" points="379,173 379,213 339,213 339,173 276,173 276,342 316,342 316,382 196,382 196,342 236,342 
		236,173 173,173 173,213 133,213 133,173 133,130 379,130 	"/>
	<rect x="10" y="462" style="fill:#4DBBEB;" width="40" height="40"/>
	<rect x="10" y="10" style="fill:#4DBBEB;" width="40" height="40"/>
</g>
<path d="M419,80H93c-5.522,0-10,4.477-10,10v332c0,5.523,4.478,10,10,10h326c5.522,0,10-4.477,10-10V90
	C429,84.477,424.522,80,419,80z M409,412H103V100h306V412z"/>
<path d="M133,223h40c5.522,0,10-4.477,10-10v-30h43v149h-30c-5.522,0-10,4.477-10,10v40c0,5.523,4.478,10,10,10h120
	c5.522,0,10-4.477,10-10v-40c0-5.523-4.478-10-10-10h-30V183h43v30c0,5.523,4.478,10,10,10h40c5.522,0,10-4.477,10-10v-83
	c0-5.523-4.478-10-10-10H133c-5.522,0-10,4.477-10,10v83C123,218.523,127.478,223,133,223z M143,140h226v63h-20v-30
	c0-5.523-4.478-10-10-10h-63c-5.522,0-10,4.477-10,10v169c0,5.523,4.478,10,10,10h30v20H206v-20h30c5.522,0,10-4.477,10-10V173
	c0-5.523-4.478-10-10-10h-63c-5.522,0-10,4.477-10,10v30h-20V140z"/>
<path d="M50,0H10C4.478,0,0,4.477,0,10v40c0,5.523,4.478,10,10,10h40c5.522,0,10-4.477,10-10V10C60,4.477,55.522,0,50,0z M40,40H20
	V20h20V40z"/>
<path d="M50,452H10c-5.522,0-10,4.477-10,10v40c0,5.523,4.478,10,10,10h40c5.522,0,10-4.477,10-10v-40C60,456.477,55.522,452,50,452
	z M40,492H20v-20h20V492z"/>
<path d="M502,0h-40c-5.522,0-10,4.477-10,10v40c0,5.523,4.478,10,10,10h40c5.522,0,10-4.477,10-10V10C512,4.477,507.522,0,502,0z
	 M492,40h-20V20h20V40z"/>
<path d="M502,452h-40c-5.522,0-10,4.477-10,10v40c0,5.523,4.478,10,10,10h40c5.522,0,10-4.477,10-10v-40
	C512,456.477,507.522,452,502,452z M492,492h-20v-20h20V492z"/>
<path d="M30,120c5.522,0,10-4.477,10-10V90c0-5.523-4.478-10-10-10s-10,4.477-10,10v20C20,115.523,24.478,120,30,120z"/>
<path d="M20,173c0,5.523,4.478,10,10,10s10-4.477,10-10v-23c0-5.523-4.478-10-10-10s-10,4.477-10,10V173z"/>
<path d="M20,236c0,5.523,4.478,10,10,10s10-4.477,10-10v-23c0-5.523-4.478-10-10-10s-10,4.477-10,10V236z"/>
<path d="M20,299c0,5.523,4.478,10,10,10s10-4.477,10-10v-20c0-5.523-4.478-10-10-10s-10,4.477-10,10V299z"/>
<path d="M20,362c0,5.523,4.478,10,10,10s10-4.477,10-10v-20c0-5.523-4.478-10-10-10s-10,4.477-10,10V362z"/>
<path d="M20,422c0,5.523,4.478,10,10,10s10-4.477,10-10v-20c0-5.523-4.478-10-10-10s-10,4.477-10,10V422z"/>
<path d="M482,120c5.522,0,10-4.477,10-10V90c0-5.523-4.478-10-10-10s-10,4.477-10,10v20C472,115.523,476.478,120,482,120z"/>
<path d="M472,173c0,5.523,4.478,10,10,10s10-4.477,10-10v-23c0-5.523-4.478-10-10-10s-10,4.477-10,10V173z"/>
<path d="M472,236c0,5.523,4.478,10,10,10s10-4.477,10-10v-23c0-5.523-4.478-10-10-10s-10,4.477-10,10V236z"/>
<path d="M472,299c0,5.523,4.478,10,10,10s10-4.477,10-10v-20c0-5.523-4.478-10-10-10s-10,4.477-10,10V299z"/>
<path d="M472,362c0,5.523,4.478,10,10,10s10-4.477,10-10v-20c0-5.523-4.478-10-10-10s-10,4.477-10,10V362z"/>
<path d="M472,422c0,5.523,4.478,10,10,10s10-4.477,10-10v-20c0-5.523-4.478-10-10-10s-10,4.477-10,10V422z"/>
<path d="M113,472H93c-5.522,0-10,4.477-10,10s4.478,10,10,10h20c5.522,0,10-4.477,10-10S118.522,472,113,472z"/>
<path d="M173,472h-20c-5.522,0-10,4.477-10,10s4.478,10,10,10h20c5.522,0,10-4.477,10-10S178.522,472,173,472z"/>
<path d="M236,472h-20c-5.522,0-10,4.477-10,10s4.478,10,10,10h20c5.522,0,10-4.477,10-10S241.522,472,236,472z"/>
<path d="M296,472h-20c-5.522,0-10,4.477-10,10s4.478,10,10,10h20c5.522,0,10-4.477,10-10S301.522,472,296,472z"/>
<path d="M359,472h-20c-5.522,0-10,4.477-10,10s4.478,10,10,10h20c5.522,0,10-4.477,10-10S364.522,472,359,472z"/>
<path d="M419,472h-20c-5.522,0-10,4.477-10,10s4.478,10,10,10h20c5.522,0,10-4.477,10-10S424.522,472,419,472z"/>
<path d="M93,40h20c5.522,0,10-4.477,10-10s-4.478-10-10-10H93c-5.522,0-10,4.477-10,10S87.478,40,93,40z"/>
<path d="M153,40h20c5.522,0,10-4.477,10-10s-4.478-10-10-10h-20c-5.522,0-10,4.477-10,10S147.478,40,153,40z"/>
<path d="M216,40h20c5.522,0,10-4.477,10-10s-4.478-10-10-10h-20c-5.522,0-10,4.477-10,10S210.478,40,216,40z"/>
<path d="M276,40h20c5.522,0,10-4.477,10-10s-4.478-10-10-10h-20c-5.522,0-10,4.477-10,10S270.478,40,276,40z"/>
<path d="M339,40h20c5.522,0,10-4.477,10-10s-4.478-10-10-10h-20c-5.522,0-10,4.477-10,10S333.478,40,339,40z"/>
<path d="M419,20h-20c-5.522,0-10,4.477-10,10s4.478,10,10,10h20c5.522,0,10-4.477,10-10S424.522,20,419,20z"/>
<g>
</g>
<g>
</g>
<g>
</g>
<g>
</g>
<g>
</g>
<g>
</g>
<g>
</g>
<g>
</g>
<g>
</g>
<g>
</g>
<g>
</g>
<g>
</g>
<g>
</g>
<g>
</g>
<g>
</g>
</svg>
