<?xml version="1.0" encoding="iso-8859-1"?>
<!-- Generator: Adobe Illustrator 19.0.0, SVG Export Plug-In . SVG Version: 6.00 Build 0)  -->
<svg version="1.1" id="Capa_1" xmlns="http://www.w3.org/2000/svg" xmlns:xlink="http://www.w3.org/1999/xlink" x="0px" y="0px"
	 viewBox="0 0 512.002 512.002" style="enable-background:new 0 0 512.002 512.002;" xml:space="preserve">
<path style="fill:#4DBBEB;" d="M482.001,133.002c11.05,0,20,8.95,20,20v329c0,11.05-8.95,20-20,20h-452c-11.05,0-20-8.95-20-20v-329
	c0-11.05,8.95-20,20-20L482.001,133.002L482.001,133.002z"/>
<path style="fill:#BEE7F4;" d="M462.001,173.002v286h-329v-286L462.001,173.002L462.001,173.002z"/>
<path style="fill:#FFF5CD;" d="M490.281,21.722c7.82,7.81,11.72,18.04,11.72,28.28s-3.9,20.47-11.72,28.28l-14.14,14.15
	l-28.28-28.28v-0.01l-28.29-28.28l14.15-14.14C449.341,6.092,474.661,6.092,490.281,21.722z"/>
<path style="fill:#FD3C65;" d="M447.861,64.152l28.28,28.28l-166.85,166.84c0-31.24-25.32-56.56-56.56-56.56l166.84-166.85
	L447.861,64.152z"/>
<path style="fill:#FEB756;" d="M309.291,259.272l-84.85,31.29l28.29-87.85C283.971,202.712,309.291,228.032,309.291,259.272z"/>
<path style="fill:#FFF5CD;" d="M73.001,296.002c11.05,0,20,8.95,20,20s-8.95,20-20,20s-20-8.95-20-20S61.951,296.002,73.001,296.002
	z"/>
<path d="M209.316,332.476c-1.374,5.349,1.85,10.799,7.198,12.173c5.573,1.431,10.873,4.41,15.749,8.853
	c10.988,10.021,23.861,15.031,36.738,15.03c12.874-0.001,25.753-5.011,36.738-15.029c14.349-13.085,32.177-13.084,46.523,0
	c10.634,9.698,24.214,15.039,38.238,15.039s27.604-5.341,38.238-15.039c4.081-3.721,4.372-10.046,0.65-14.127
	c-3.721-4.081-10.047-4.372-14.127-0.65c-14.348,13.084-35.176,13.084-49.523,0c-21.975-20.04-51.502-20.039-73.477,0
	c-14.348,13.085-32.176,13.084-46.527-0.003c-7.32-6.669-15.478-11.192-24.247-13.444
	C216.133,323.904,210.689,327.126,209.316,332.476z"/>
<path d="M173.001,316.222c-5.52,0-10,4.47-10,10c0,5.52,4.48,10,10,10s10-4.48,10-10
	C183.001,320.692,178.521,316.222,173.001,316.222z"/>
<path d="M482.001,123.002h-22.289l23.5-23.499c0.002-0.002,0.003-0.003,0.005-0.005l14.131-14.141
	c9.449-9.438,14.653-21.994,14.653-35.355s-5.204-25.918-14.646-35.349C487.911,5.204,475.356,0,462.001,0
	s-25.91,5.204-35.349,14.649l-14.149,14.14l-0.001,0.001l-0.001,0.001l-94.205,94.211H30.001c-16.542,0-30,13.458-30,30v329
	c0,16.542,13.458,30,30,30h452c16.542,0,30-13.458,30-30v-329C512.001,136.46,498.543,123.002,482.001,123.002z M259.842,213.255
	c20.099,3.093,35.995,19.088,38.949,39.231l-58.533,21.585L259.842,213.255z M245.66,195.642c-0.001,0.001-0.002,0.003-0.004,0.004
	c-0.256,0.256-0.494,0.529-0.721,0.812c-0.068,0.085-0.129,0.173-0.194,0.26c-0.157,0.209-0.308,0.423-0.449,0.645
	c-0.062,0.097-0.121,0.196-0.179,0.295c-0.136,0.232-0.262,0.47-0.38,0.713c-0.043,0.088-0.087,0.175-0.127,0.264
	c-0.137,0.305-0.259,0.617-0.365,0.938c-0.008,0.025-0.021,0.049-0.029,0.074l-0.012,0.039c-0.009,0.03-0.02,0.059-0.029,0.089
	l-28.249,87.722c-1.173,3.642-0.165,7.634,2.597,10.283c1.895,1.817,4.386,2.783,6.924,2.783c1.16,0,2.331-0.202,3.458-0.618
	l84.85-31.29c0.052-0.019,0.1-0.046,0.152-0.065c0.219-0.085,0.434-0.179,0.646-0.279c0.104-0.049,0.209-0.097,0.312-0.15
	c0.206-0.106,0.406-0.222,0.603-0.342c0.1-0.061,0.202-0.118,0.3-0.182c0.198-0.13,0.388-0.271,0.576-0.414
	c0.087-0.066,0.177-0.126,0.261-0.195c0.25-0.203,0.489-0.418,0.718-0.644c0.014-0.014,0.03-0.026,0.044-0.04l83.346-83.341h52.292
	v266h-309v-266h115.298L245.66,195.642z M315.946,238.476c-6.595-19.997-22.422-35.823-42.419-42.419L419.571,50.005l42.427,42.427
	L315.946,238.476z M462.001,20c8.01,0,15.541,3.122,21.214,8.798c5.666,5.659,8.786,13.189,8.786,21.204s-3.12,15.545-8.793,21.211
	l-7.069,7.075l-21.106-21.106c-0.035-0.036-0.065-0.076-0.101-0.112l-21.214-21.207l7.077-7.072
	C446.46,23.122,453.991,20,462.001,20z M492.001,482.002c0,5.514-4.486,10-10,10h-452c-5.514,0-10-4.486-10-10v-329
	c0-5.514,4.486-10,10-10h268.295l-19.999,20H133.001c-5.522,0-10,4.477-10,10v286c0,5.523,4.478,10,10,10h329
	c5.522,0,10-4.477,10-10v-286c0-5.523-4.478-10-10-10H419.71l20.001-20h42.29c5.514,0,10,4.486,10,10V482.002z"/>
<path d="M93.001,183.002h-40c-5.522,0-10,4.477-10,10s4.478,10,10,10h40c5.522,0,10-4.477,10-10S98.524,183.002,93.001,183.002z"/>
<path d="M93.001,223.002h-40c-5.522,0-10,4.477-10,10s4.478,10,10,10h40c5.522,0,10-4.477,10-10S98.524,223.002,93.001,223.002z"/>
<path d="M93.001,386.002h-40c-5.522,0-10,4.477-10,10s4.478,10,10,10h40c5.522,0,10-4.477,10-10S98.524,386.002,93.001,386.002z"/>
<path d="M93.001,426.002h-40c-5.522,0-10,4.477-10,10s4.478,10,10,10h40c5.522,0,10-4.477,10-10S98.524,426.002,93.001,426.002z"/>
<path d="M73.001,286.002c-16.542,0-30,13.458-30,30s13.458,30,30,30s30-13.458,30-30S89.543,286.002,73.001,286.002z
	 M73.001,326.002c-5.514,0-10-4.486-10-10s4.486-10,10-10c5.514,0,10,4.486,10,10S78.515,326.002,73.001,326.002z"/>
<g>
</g>
<g>
</g>
<g>
</g>
<g>
</g>
<g>
</g>
<g>
</g>
<g>
</g>
<g>
</g>
<g>
</g>
<g>
</g>
<g>
</g>
<g>
</g>
<g>
</g>
<g>
</g>
<g>
</g>
</svg>
