<?xml version="1.0" encoding="iso-8859-1"?>
<!-- Generator: Adobe Illustrator 19.0.0, SVG Export Plug-In . SVG Version: 6.00 Build 0)  -->
<svg version="1.1" id="Capa_1" xmlns="http://www.w3.org/2000/svg" xmlns:xlink="http://www.w3.org/1999/xlink" x="0px" y="0px"
	 viewBox="0 0 511.998 511.998" style="enable-background:new 0 0 511.998 511.998;" xml:space="preserve">
<g>
	<path style="fill:#4DBBEB;" d="M502.002,461.937c0,22.084-17.905,39.988-39.988,39.988c-22.084,0-39.988-17.905-39.988-39.988
		c0-22.084,39.988-85.975,39.988-85.975S502.002,439.854,502.002,461.937z"/>
	<path style="fill:#4DBBEB;" d="M279.147,139.731l138.4,138.41l28.282,28.282h-56.554L220.314,475.373L36.528,291.577l82.666-82.666
		L233.76,94.344L279.147,139.731z"/>
</g>
<path style="fill:#FEB756;" d="M293.373,246.8c7.818-7.808,7.818-20.474,0-28.282c-7.808-7.808-20.464-7.808-28.272,0
	c-7.808,7.808-7.808,20.474,0,28.282C272.909,254.607,285.565,254.607,293.373,246.8z"/>
<path style="fill:#E2E2E2;" d="M36.527,291.577l183.787,183.797l-14.836,14.836c-15.615,15.625-40.938,15.625-56.554,0
	L21.682,362.976c-15.615-15.625-15.615-40.938,0-56.554L36.527,291.577z"/>
<path d="M169.948,200.192l-84.835,84.825c-3.905,3.904-3.905,10.233-0.001,14.138c1.951,1.952,4.511,2.928,7.069,2.928
	c2.558,0,5.117-0.976,7.068-2.928l84.835-84.825c3.905-3.904,3.905-10.233,0.001-14.138
	C180.183,196.289,173.852,196.287,169.948,200.192z"/>
<path d="M470.487,370.659c-1.827-2.92-5.03-4.694-8.475-4.694c-3.445,0-6.646,1.773-8.475,4.694
	c-6.932,11.076-41.511,67.527-41.511,91.278c0,27.562,22.423,49.985,49.985,49.985c27.562,0,49.985-22.423,49.985-49.985
	C511.999,438.186,477.419,381.733,470.487,370.659z M462.014,491.928c-16.537,0-29.991-13.454-29.991-29.991
	c0-11.013,15.563-41.86,29.991-66.616c14.428,24.757,29.991,55.604,29.991,66.616C492.005,478.474,478.551,491.928,462.014,491.928z
	"/>
<path d="M198.22,171.922c-3.909,3.899-3.909,10.227,0,14.136c3.899,3.899,10.237,3.899,14.136,0c3.909-3.909,3.909-10.237,0-14.136
	C208.457,168.013,202.119,168.013,198.22,171.922z"/>
<path d="M445.827,316.419c4.044,0,7.689-2.436,9.236-6.171c1.547-3.735,0.691-8.036-2.167-10.894L289.144,135.59V90.045
	c0-49.612-40.362-89.974-89.974-89.974s-89.974,40.362-89.974,89.974v114.724l-79.729,79.73c-0.003,0.003-0.006,0.006-0.009,0.009
	c-0.003,0.003-0.005,0.006-0.009,0.01l-14.837,14.837c-19.483,19.483-19.484,51.194,0,70.691l127.241,127.231
	c9.44,9.447,21.995,14.65,35.348,14.65c13.352,0,25.906-5.203,35.345-14.647l14.835-14.834c0.001-0.001,0.001-0.001,0.002-0.002
	s0.001-0.001,0.002-0.002l166.03-166.023H445.827z M272.17,225.587c1.947-1.948,4.506-2.922,7.064-2.922
	c2.561,0,5.123,0.976,7.073,2.926c1.89,1.887,2.931,4.398,2.931,7.068c0,2.669-1.041,5.179-2.931,7.066
	c-0.002,0.002-0.003,0.003-0.005,0.005c-1.888,1.887-4.397,2.927-7.066,2.927c-2.669,0-5.178-1.04-7.067-2.928
	s-2.927-4.399-2.927-7.072C269.242,229.987,270.281,227.475,272.17,225.587z M129.191,90.045c0-38.587,31.392-69.98,69.98-69.98
	s69.98,31.393,69.98,69.98v25.551l-28.321-28.321c-1.875-1.874-4.418-2.928-7.069-2.928c-2.651,0-5.193,1.054-7.069,2.928
	l-97.5,97.501L129.191,90.045L129.191,90.045z M177.202,491.931c-8.012,0-15.541-3.121-21.209-8.791L28.753,355.909
	c-11.692-11.699-11.693-30.727-0.002-42.418l7.776-7.776l169.65,169.658l-7.77,7.769
	C192.742,488.809,185.212,491.931,177.202,491.931z M382.206,299.353L220.314,461.235L50.664,291.577l75.595-75.596
	c0.001-0.001,0.002-0.002,0.004-0.004l107.496-107.496l35.39,35.392v60.545c-4.062,1.444-7.873,3.785-11.118,7.03
	c-5.664,5.664-8.783,13.197-8.783,21.21c0,8.014,3.119,15.546,8.783,21.21c5.664,5.664,13.194,8.784,21.205,8.784
	c8.008,0,15.536-3.118,21.2-8.778c5.672-5.665,8.796-13.199,8.796-21.215s-3.124-15.55-8.791-21.211
	c-3.293-3.293-7.169-5.658-11.298-7.096v-40.483l132.549,132.556h-32.419C386.623,296.425,384.08,297.478,382.206,299.353z"/>
<g>
</g>
<g>
</g>
<g>
</g>
<g>
</g>
<g>
</g>
<g>
</g>
<g>
</g>
<g>
</g>
<g>
</g>
<g>
</g>
<g>
</g>
<g>
</g>
<g>
</g>
<g>
</g>
<g>
</g>
</svg>
