<?xml version="1.0" encoding="iso-8859-1"?>
<!-- Generator: Adobe Illustrator 19.0.0, SVG Export Plug-In . SVG Version: 6.00 Build 0)  -->
<svg version="1.1" id="Capa_1" xmlns="http://www.w3.org/2000/svg" xmlns:xlink="http://www.w3.org/1999/xlink" x="0px" y="0px"
	 viewBox="0 0 512 512" style="enable-background:new 0 0 512 512;" xml:space="preserve">
<path style="fill:#FD3C65;" d="M502,70v280c0,11.05-8.95,20-20,20h-71h-1V262v-60c0-11.05-8.95-20-20-20H218.28
	c-5.3,0-10.39-2.11-14.14-5.86l-28.28-28.28c-3.75-3.75-8.84-5.86-14.14-5.86H102v-1V30c0-11.05,8.95-20,20-20h131.72
	c5.3,0,10.39,2.11,14.14,5.86l28.28,28.28c3.75,3.75,8.84,5.86,14.14,5.86H482C493.05,50,502,58.95,502,70z"/>
<path style="fill:#FEB756;" d="M410,370v112c0,11.05-8.95,20-20,20H30c-11.05,0-20-8.95-20-20V262h400V370z"/>
<path style="fill:#FFF5CD;" d="M410,202v60H10V162c0-11.05,8.95-20,20-20h72h59.72c5.3,0,10.39,2.11,14.14,5.86l28.28,28.28
	c3.75,3.75,8.84,5.86,14.14,5.86H390C401.05,182,410,190.95,410,202z"/>
<path d="M350,312h-60c-5.522,0-10,4.478-10,10s4.478,10,10,10h60c5.522,0,10-4.478,10-10S355.522,312,350,312z"/>
<path d="M350,372h-60c-5.522,0-10,4.478-10,10s4.478,10,10,10h60c5.522,0,10-4.478,10-10S355.522,372,350,372z"/>
<path d="M250,312c-5.52,0-10,4.48-10,10s4.48,10,10,10s10-4.48,10-10S255.52,312,250,312z"/>
<path d="M250,372c-5.52,0-10,4.48-10,10s4.48,10,10,10s10-4.48,10-10S255.52,372,250,372z"/>
<path d="M482,40H310.28c-2.63,0-5.207-1.068-7.069-2.932L274.932,8.789C269.346,3.203,261.614,0,253.72,0H122
	c-16.542,0-30,13.458-30,30v102H30c-16.542,0-30,13.458-30,30v320c0,16.542,13.458,30,30,30h360c16.542,0,30-13.458,30-30V380h62
	c16.542,0,30-13.458,30-30V70C512,53.458,498.542,40,482,40z M30,152h131.72c2.629,0,5.206,1.068,7.069,2.932l28.28,28.279
	c5.586,5.586,13.317,8.789,21.211,8.789H390c5.514,0,10,4.486,10,10v50H20v-90C20,156.486,24.486,152,30,152z M390,492H30
	c-5.514,0-10-4.486-10-10V272h380v210C400,487.514,395.514,492,390,492z M492,350c0,5.514-4.486,10-10,10h-62V202
	c0-16.542-13.458-30-30-30H218.28c-2.629,0-5.206-1.068-7.069-2.932l-28.28-28.279c-5.586-5.586-13.317-8.789-21.211-8.789H112V30
	c0-5.514,4.486-10,10-10h131.72c2.63,0,5.207,1.068,7.069,2.932l28.279,28.279C294.654,56.797,302.386,60,310.28,60H482
	c5.514,0,10,4.486,10,10V350z"/>
<g>
</g>
<g>
</g>
<g>
</g>
<g>
</g>
<g>
</g>
<g>
</g>
<g>
</g>
<g>
</g>
<g>
</g>
<g>
</g>
<g>
</g>
<g>
</g>
<g>
</g>
<g>
</g>
<g>
</g>
</svg>
