<?xml version="1.0" encoding="iso-8859-1"?>
<!-- Generator: Adobe Illustrator 19.0.0, SVG Export Plug-In . SVG Version: 6.00 Build 0)  -->
<svg version="1.1" id="Capa_1" xmlns="http://www.w3.org/2000/svg" xmlns:xlink="http://www.w3.org/1999/xlink" x="0px" y="0px"
	 viewBox="0 0 512 512" style="enable-background:new 0 0 512 512;" xml:space="preserve">
<path style="fill:#FEB756;" d="M436,70v43c0,11.05-8.95,20-20,20H76c-11.05,0-20-8.95-20-20V70V30c0-11.05,8.95-20,20-20h340
	c11.05,0,20,8.95,20,20V70z"/>
<g>
	<path style="fill:#935C41;" d="M286,253c11.05,0,20,8.95,20,20c0,5.52-2.24,10.52-5.86,14.14c-3.62,3.62-8.62,5.86-14.14,5.86h-10
		h-60h-10c-11.05,0-20-8.95-20-20c0-5.52,2.24-10.52,5.86-14.14c3.62-3.62,8.62-5.86,14.14-5.86h40L286,253L286,253z"/>
	<path style="fill:#935C41;" d="M295.54,445.21c0.3,2.22,0.46,4.49,0.46,6.79c0,27.57-22.43,50-50,50s-50-22.43-50-50
		c0-2.3,0.16-4.57,0.46-6.79L216,293h60L295.54,445.21z"/>
</g>
<path d="M396,40c-5.52,0-10,4.48-10,10s4.48,10,10,10s10-4.48,10-10S401.52,40,396,40z"/>
<path d="M246,452c-5.52,0-10,4.48-10,10s4.48,10,10,10s10-4.48,10-10S251.52,452,246,452z"/>
<path d="M456,60h-10V30c0-16.542-13.458-30-30-30H76C59.458,0,46,13.458,46,30v30H36c-5.523,0-10,4.478-10,10s4.477,10,10,10h10v33
	c0,16.542,13.458,30,30,30h340c16.542,0,30-13.458,30-30V80h10c5.514,0,10,4.486,10,10v65.84c0,4.974-3.566,9.132-8.479,9.887
	c-0.075,0.012-0.151,0.024-0.227,0.037l-195.979,34.762C246.638,202.842,236,215.285,236,230.16V243h-30
	c-8.01,0-15.543,3.121-21.211,8.79C179.121,257.458,176,264.99,176,273c0,16.085,12.726,29.251,28.639,29.965L186.55,443.869
	c0,0,0,0.001,0,0.002c0,0.003-0.001,0.006-0.001,0.01l-0.007,0.056c-0.001,0.005,0,0.01-0.001,0.014
	c-0.358,2.676-0.54,5.384-0.54,8.049c0,33.084,26.916,60,60,60s60-26.916,60-60c0-2.661-0.182-5.365-0.539-8.037
	c-0.001-0.009-0.001-0.017-0.002-0.026l-18.097-140.97c7.499-0.333,14.504-3.41,19.849-8.756C312.879,288.543,316,281.01,316,273
	c0-16.542-13.458-30-30-30h-30v-12.84c0-4.974,3.566-9.132,8.479-9.887c0.075-0.012,0.151-0.024,0.227-0.037l195.979-34.762
	C475.36,183.157,486,170.715,486,155.84V90C486,73.458,472.542,60,456,60z M426,113c0,5.514-4.486,10-10,10H76
	c-5.514,0-10-4.486-10-10V30c0-5.514,4.486-10,10-10h340c5.514,0,10,4.486,10,10V113z M246,492c-22.056,0-40-17.944-40-40
	c0-1.8,0.125-3.634,0.37-5.451c0.002-0.012,0.001-0.023,0.003-0.035c0.001-0.01,0.004-0.02,0.005-0.031L224.798,303h42.403
	l18.42,143.483c0.002,0.012,0.005,0.024,0.006,0.036c0.001,0.01,0.001,0.02,0.003,0.03c0.246,1.817,0.37,3.651,0.37,5.451
	C286,474.056,268.056,492,246,492z M296,273c0,2.668-1.041,5.178-2.932,7.068S288.668,283,286,283h-10h-60h-10
	c-5.514,0-10-4.486-10-10c0-2.668,1.041-5.179,2.931-7.068c1.89-1.891,4.401-2.932,7.069-2.932h80C291.514,263,296,267.486,296,273z
	"/>
<path d="M356,40H96c-5.523,0-10,4.478-10,10s4.477,10,10,10h260c5.522,0,10-4.478,10-10S361.522,40,356,40z"/>
<g>
</g>
<g>
</g>
<g>
</g>
<g>
</g>
<g>
</g>
<g>
</g>
<g>
</g>
<g>
</g>
<g>
</g>
<g>
</g>
<g>
</g>
<g>
</g>
<g>
</g>
<g>
</g>
<g>
</g>
</svg>
