<?xml version="1.0" encoding="iso-8859-1"?>
<!-- Generator: Adobe Illustrator 19.0.0, SVG Export Plug-In . SVG Version: 6.00 Build 0)  -->
<svg version="1.1" id="Capa_1" xmlns="http://www.w3.org/2000/svg" xmlns:xlink="http://www.w3.org/1999/xlink" x="0px" y="0px"
	 viewBox="0 0 512 512" style="enable-background:new 0 0 512 512;" xml:space="preserve">
<g>
	<path style="fill:#4DBBEB;" d="M10,386v30c0,16.57,13.43,30,30,30h432c16.57,0,30-13.43,30-30v-30H10z"/>
	<path style="fill:#4DBBEB;" d="M10,186v-30c0-16.57,13.43-30,30-30h10h86h20.72c5.45,0,10.66-2.23,14.44-6.16l45.69-47.68
		c3.77-3.93,8.98-6.16,14.44-6.16H482c11.05,0,20,8.95,20,20v100H10z"/>
</g>
<path style="fill:#FEB756;" d="M10,186v200h492V186H10z"/>
<rect x="376" y="106" style="fill:#FFF5CD;" width="86" height="40"/>
<path style="fill:#FD3C65;" d="M324.45,187.43C355.61,209.11,376,245.17,376,286s-20.39,76.89-51.55,98.57
	C305.04,398.08,281.45,406,256,406s-49.04-7.92-68.45-21.43C156.39,362.89,136,326.83,136,286s20.39-76.89,51.55-98.57
	c19.41-13.51,43-21.43,68.45-21.43S305.04,173.92,324.45,187.43z M316,286c0-33.09-26.91-60-60-60s-60,26.91-60,60s26.91,60,60,60
	S316,319.09,316,286z"/>
<path style="fill:#FFFFFF;" d="M256,226c33.09,0,60,26.91,60,60s-26.91,60-60,60s-60-26.91-60-60S222.91,226,256,226z"/>
<rect x="50" y="86" style="fill:#FD3C65;" width="86" height="40"/>
<path d="M50,256c-5.523,0-10,4.477-10,10v80c0,5.523,4.477,10,10,10s10-4.477,10-10v-80C60,260.477,55.523,256,50,256z"/>
<path d="M326,286c0-38.598-31.402-70-70-70s-70,31.402-70,70s31.402,70,70,70S326,324.598,326,286z M206,286c0-27.57,22.43-50,50-50
	s50,22.43,50,50s-22.43,50-50,50S206,313.57,206,286z"/>
<path d="M50,216c-5.52,0-10,4.48-10,10s4.48,10,10,10s10-4.48,10-10S55.52,216,50,216z"/>
<path d="M482,56H231.29c-8.131,0-16.025,3.367-21.66,9.241l-45.677,47.667c-1.891,1.965-4.527,3.092-7.233,3.092H146V86
	c0-5.523-4.477-10-10-10H50c-5.523,0-10,4.477-10,10v30c-22.056,0-40,17.944-40,40v260c0,22.056,17.944,40,40,40h432
	c22.056,0,40-17.944,40-40V86C512,69.458,498.542,56,482,56z M20,196h142.225C139.221,219.993,126,252.163,126,286
	s13.221,66.008,36.225,90H20V196z M193.261,376.361C163.667,355.771,146,321.991,146,286s17.667-69.771,47.263-90.362
	C211.72,182.791,233.414,176,256,176s44.28,6.791,62.737,19.638c0.001,0,0.001,0.001,0.002,0.001
	C348.332,216.229,366,250.008,366,286s-17.668,69.771-47.263,90.362C300.28,389.209,278.586,396,256,396
	S211.72,389.209,193.261,376.361z M386,286c0-33.837-13.221-66.008-36.225-90H492v180H349.775C372.779,352.007,386,319.836,386,286z
	 M60,96h66v20H60V96z M40,136h10h86h20.72c8.116,0,16.006-3.363,21.66-9.241l45.686-47.676c1.879-1.959,4.512-3.083,7.224-3.083H482
	c5.514,0,10,4.486,10,10v90H325.44c-0.05,0-0.098,0.007-0.147,0.007C304.562,162.908,280.733,156,256,156
	s-48.563,6.908-69.293,20.007c-0.049-0.001-0.097-0.007-0.147-0.007H20v-20C20,144.972,28.972,136,40,136z M472,436H40
	c-11.028,0-20-8.972-20-20v-20h166.56c0.05,0,0.097-0.007,0.147-0.007C207.438,409.092,231.267,416,256,416
	c24.734,0,48.563-6.908,69.293-20.007c0.05,0.001,0.098,0.007,0.148,0.007H492v20C492,427.028,483.028,436,472,436z"/>
<path d="M376,156h86c5.522,0,10-4.477,10-10v-40c0-5.523-4.478-10-10-10h-86c-5.522,0-10,4.477-10,10v40
	C366,151.523,370.478,156,376,156z M386,116h66v20h-66V116z"/>
<path d="M462,256c-5.522,0-10,4.477-10,10v80c0,5.523,4.478,10,10,10s10-4.477,10-10v-80C472,260.477,467.522,256,462,256z"/>
<path d="M462,236c5.52,0,10-4.48,10-10s-4.48-10-10-10s-10,4.48-10,10S456.48,236,462,236z"/>
<g>
</g>
<g>
</g>
<g>
</g>
<g>
</g>
<g>
</g>
<g>
</g>
<g>
</g>
<g>
</g>
<g>
</g>
<g>
</g>
<g>
</g>
<g>
</g>
<g>
</g>
<g>
</g>
<g>
</g>
</svg>
