<?xml version="1.0" encoding="iso-8859-1"?>
<!-- Generator: Adobe Illustrator 19.0.0, SVG Export Plug-In . SVG Version: 6.00 Build 0)  -->
<svg version="1.1" id="Capa_1" xmlns="http://www.w3.org/2000/svg" xmlns:xlink="http://www.w3.org/1999/xlink" x="0px" y="0px"
	 viewBox="0 0 512 512" style="enable-background:new 0 0 512 512;" xml:space="preserve">
<path style="fill:#FD3C65;" d="M490.068,48.202c15.798,25.077,15.758,58.222,0.11,83.389
	c-10.699,17.208-25.887,28.436-42.574,33.975c-27.176,9.039-58.582,27.076-78.83,47.324l-11.238,11.239l-70.701-70.701
	l11.259-11.258c20.137-20.137,39.165-50.493,47.994-77.57c3.71-11.378,10.049-22.067,19.117-31.136
	C400.76-2.092,461.462,2.828,490.068,48.202z"/>
<path style="fill:#4DBBEB;" d="M371.914,238.507c11.708,11.708,11.708,30.706,0,42.414c-5.859,5.859-13.538,8.789-21.217,8.789
	c-7.669,0-15.348-2.93-21.207-8.789l-14.138-14.138l-70.701-70.701l-14.138-14.138c-11.718-11.718-11.718-30.706,0-42.424
	c5.859-5.859,13.528-8.779,21.207-8.779c7.679,0,15.348,2.92,21.207,8.779l13.908,13.908l70.701,70.701L371.914,238.507z"/>
<path style="fill:#BEE7F4;" d="M315.351,266.783L180.659,401.995c-8.769,8.769-19.437,15.378-31.206,19.297
	c-0.02,0.01-0.04,0.01-0.06,0.02c0.01,0,0.01,0,0.02,0c-1.6,0.84-53.043,22.557-73.23,42.734l-32.066,32.066
	c-3.899,3.899-9.019,5.859-14.138,5.859s-10.239-1.96-14.138-5.859c-7.809-7.809-7.809-20.467,0-28.276l32.066-32.066
	c17.558-17.558,28.016-29.076,42.734-73.21c3.919-11.788,10.539-22.487,19.317-31.266l134.692-135.212L315.351,266.783z"/>
<path d="M498.527,42.87c-15.004-23.799-39.316-39.206-66.7-42.27c-27.378-3.067-54.236,6.339-73.692,25.795
	c-9.951,9.952-17.203,21.763-21.553,35.105c-8.241,25.276-26.124,54.166-45.557,73.599l-4.188,4.188l-6.838-6.838
	c-7.55-7.549-17.593-11.706-28.277-11.706s-20.727,4.157-28.277,11.706c-15.595,15.595-15.595,40.971,0,56.565l7.081,7.081
	L102.888,324.223c-9.838,9.839-17.354,22.004-21.732,35.173C66.655,402.883,56.936,412.6,40.838,428.7L8.771,460.766
	c-11.694,11.694-11.694,30.723,0,42.417c5.667,5.666,13.199,8.788,21.208,8.788s15.541-3.121,21.208-8.788l32.064-32.064
	c10.919-10.914,35.228-25.072,68.451-39.868c0.717-0.319,1.184-0.527,1.525-0.683c12.909-4.406,24.829-11.83,34.515-21.516
	l127.622-128.115l7.054,7.054c7.556,7.556,17.599,11.717,28.276,11.717c10.686,0,20.731-4.161,28.288-11.717
	c7.551-7.551,11.709-17.594,11.709-28.277c0-10.684-4.158-20.726-11.709-28.277l-7.308-7.308l4.167-4.168
	c18.195-18.195,47.6-35.822,74.909-44.905c19.927-6.614,36.496-19.818,47.916-38.185C516.495,108.201,516.44,71.305,498.527,42.87z
	 M173.589,394.924c-7.616,7.617-17.017,13.439-27.192,16.846c-0.01,0.003-0.021,0.008-0.031,0.011
	c-0.022,0.007-0.044,0.016-0.067,0.023c-0.066,0.022-0.13,0.05-0.196,0.073c-0.164,0.058-0.328,0.115-0.49,0.182
	c-0.266,0.108-0.526,0.225-0.777,0.354c-0.01,0.005-0.019,0.011-0.028,0.016c-0.272,0.123-0.685,0.306-1.24,0.554
	c-25.046,11.155-58.293,27.84-74.454,43.994l-32.066,32.066c-1.89,1.89-4.399,2.931-7.068,2.931s-5.178-1.041-7.068-2.931
	c-1.889-1.889-2.929-4.398-2.929-7.068s1.04-5.18,2.928-7.068l32.067-32.066c18.62-18.621,29.897-31.382,45.152-77.127
	c3.406-10.242,9.249-19.699,16.914-27.363l127.622-128.114l56.56,56.56L173.589,394.924z M364.845,273.85
	c-3.779,3.779-8.805,5.86-14.148,5.86c-5.337,0-10.358-2.082-14.137-5.86l-14.147-14.147c-0.001-0.001-0.003-0.003-0.004-0.005
	c-0.001-0.001-0.003-0.002-0.004-0.004l-70.696-70.696c0,0,0,0-0.001-0.001s0,0-0.001-0.001l-14.124-14.124
	c-3.779-3.779-5.86-8.802-5.86-14.142c0-5.34,2.082-10.363,5.86-14.142c3.772-3.772,8.792-5.85,14.136-5.85
	s10.365,2.078,14.138,5.85l13.9,13.901c0.002,0.002,0.004,0.005,0.007,0.008s0.005,0.004,0.008,0.007l70.693,70.695l14.379,14.378
	C372.639,253.372,372.639,266.056,364.845,273.85z M481.687,126.31c-8.922,14.349-21.796,24.642-37.239,29.767
	c-30.039,9.991-62.518,29.516-82.744,49.741l-4.168,4.168l-56.56-56.559l4.188-4.188c21.49-21.491,41.285-53.498,50.43-81.54
	c3.365-10.321,8.977-19.46,16.681-27.164c15.133-15.133,36.024-22.445,57.328-20.061c21.308,2.385,40.265,14.435,52.006,33.059
	C495.254,75.192,495.285,104.439,481.687,126.31z"/>
<path d="M209.198,288.084l-70.981,71.501c-3.89,3.919-3.867,10.25,0.051,14.14c1.951,1.937,4.497,2.903,7.044,2.903
	c2.571,0,5.141-0.986,7.096-2.955l70.981-71.5c3.89-3.919,3.867-10.25-0.051-14.14C219.421,284.142,213.09,284.165,209.198,288.084z
	"/>
<path d="M237.651,259.924c-3.909,3.909-3.909,10.239,0,14.148c3.899,3.899,10.239,3.899,14.138,0c3.909-3.909,3.909-10.239,0-14.148
	C247.89,256.024,241.551,256.024,237.651,259.924z"/>
<path d="M452.074,43.012c-11.016-6.886-24.794-8.959-37.805-5.688c-13.369,3.361-24.503,11.802-31.348,23.771
	c-2.742,4.793-1.078,10.902,3.716,13.644c1.566,0.896,3.272,1.321,4.955,1.321c3.47,0,6.842-1.809,8.688-5.036
	c4.119-7.203,10.819-12.282,18.863-14.305c7.765-1.952,15.904-0.766,22.329,3.252c4.683,2.927,10.852,1.505,13.778-3.179
	C458.179,52.108,456.756,45.94,452.074,43.012z"/>
<g>
</g>
<g>
</g>
<g>
</g>
<g>
</g>
<g>
</g>
<g>
</g>
<g>
</g>
<g>
</g>
<g>
</g>
<g>
</g>
<g>
</g>
<g>
</g>
<g>
</g>
<g>
</g>
<g>
</g>
</svg>
