<?xml version="1.0" encoding="iso-8859-1"?>
<!-- Generator: Adobe Illustrator 19.0.0, SVG Export Plug-In . SVG Version: 6.00 Build 0)  -->
<svg version="1.1" id="Capa_1" xmlns="http://www.w3.org/2000/svg" xmlns:xlink="http://www.w3.org/1999/xlink" x="0px" y="0px"
	 viewBox="0 0 512 512" style="enable-background:new 0 0 512 512;" xml:space="preserve">
<g>
	<path style="fill:#AFAFAF;" d="M142.57,467.81L130,472v30h212c-11.05,0-20-8.95-20-20V319H10v63c0,11.05,8.95,20,20,20h160
		C190,431.86,170.89,458.37,142.57,467.81z"/>
	<path style="fill:#AFAFAF;" d="M502,462v20c0,11.05-8.95,20-20,20H362h-20c-11.05,0-20-8.95-20-20v-20H502z"/>
</g>
<path style="fill:#FFFFFF;" d="M502,256v206H322V256H502z"/>
<path style="fill:#AFAFAF;" d="M502,236.001v20H322v-20c0-11.05,8.95-20,20-20h140C493.05,216.001,502,224.951,502,236.001z"/>
<path style="fill:#FFFFFF;" d="M502,30.001v206c0-11.05-8.95-20-20-20H342c-11.05,0-20,8.95-20,20v20v63H10v-289
	c0-11.05,8.95-20,20-20h452C493.05,10.001,502,18.951,502,30.001z"/>
<g>
	<rect x="362" y="299" style="fill:#FEB756;" width="100" height="40"/>
	<rect x="70" y="73.001" style="fill:#FEB756;" width="372" height="63"/>
</g>
<path d="M362,349h100c5.523,0,10-4.478,10-10v-40c0-5.522-4.477-10-10-10H362c-5.523,0-10,4.478-10,10v40
	C352,344.523,356.477,349,362,349z M372,309h80v20h-80V309z"/>
<path d="M422,372h-60c-5.523,0-10,4.478-10,10c0,5.522,4.477,10,10,10h60c5.523,0,10-4.478,10-10C432,376.479,427.523,372,422,372z"
	/>
<path d="M256,246.001c-5.52,0-10,4.48-10,10c0,5.52,4.48,10,10,10c5.52,0,10-4.48,10-10C266,250.481,261.52,246.001,256,246.001z"/>
<path d="M482,0.001H30c-16.542,0-30,13.458-30,30v352c0,16.542,13.458,30,30,30h149.15c-3.626,21.342-18.684,39.304-39.743,46.323
	l-12.57,4.19c-4.083,1.36-6.837,5.182-6.837,9.486v30c0,5.522,4.477,10,10,10h212h140c16.542,0,30-13.458,30-30V236.001v-206
	C512,13.459,498.542,0.001,482,0.001z M30,20.001h452c5.514,0,10,4.486,10,10v177.72c-3.13-1.11-6.494-1.72-10-1.72H342
	c-16.542,0-30,13.458-30,30v73H20v-279C20,24.487,24.486,20.001,30,20.001z M492,246.001H332v-10c0-5.514,4.486-10,10-10h140
	c5.514,0,10,4.486,10,10V246.001z M332,266h160v186H332V266z M20,382v-53h292v63H30C24.486,392,20,387.515,20,382z M140,479.208
	l5.732-1.91C174.987,467.546,195.583,442,199.365,412H312v70c0,3.506,0.61,6.87,1.72,10H140V479.208z M482,492H342
	c-5.514,0-10-4.486-10-10v-10h160v10C492,487.515,487.514,492,482,492z"/>
<path d="M70,146.001h372c5.523,0,10-4.478,10-10v-63c0-5.522-4.477-10-10-10H70c-5.523,0-10,4.478-10,10v63
	C60,141.523,64.477,146.001,70,146.001z M80,83.001h352v43H80V83.001z"/>
<path d="M70,206.001h186c5.523,0,10-4.478,10-10s-4.477-10-10-10H70c-5.523,0-10,4.478-10,10S64.477,206.001,70,206.001z"/>
<path d="M70,266h140c5.523,0,10-4.478,10-10c0-5.522-4.477-10-10-10H70c-5.523,0-10,4.478-10,10C60,261.523,64.477,266,70,266z"/>
<path d="M256,372h20c5.523,0,10-4.478,10-10c0-5.522-4.477-10-10-10h-20c-5.523,0-10,4.478-10,10C246,367.523,250.477,372,256,372z"
	/>
<path d="M470.08,377.76c-3.91-3.9-10.24-3.9-14.15,0c-3.9,3.91-3.9,10.24,0,14.14c3.91,3.91,10.24,3.91,14.15,0
	C473.98,388,473.98,381.671,470.08,377.76z"/>
<g>
</g>
<g>
</g>
<g>
</g>
<g>
</g>
<g>
</g>
<g>
</g>
<g>
</g>
<g>
</g>
<g>
</g>
<g>
</g>
<g>
</g>
<g>
</g>
<g>
</g>
<g>
</g>
<g>
</g>
</svg>
