<?xml version="1.0" encoding="iso-8859-1"?>
<!-- Generator: Adobe Illustrator 19.0.0, SVG Export Plug-In . SVG Version: 6.00 Build 0)  -->
<svg version="1.1" id="Capa_1" xmlns="http://www.w3.org/2000/svg" xmlns:xlink="http://www.w3.org/1999/xlink" x="0px" y="0px"
	 viewBox="0 0 511.999 511.999" style="enable-background:new 0 0 511.999 511.999;" xml:space="preserve">
<polygon style="fill:#4DBBEB;" points="296.936,80.065 339.366,122.495 381.786,164.915 424.216,207.345 459.566,242.695 
	346.436,355.825 148.447,157.835 261.576,44.705 "/>
<path style="fill:#E2E2E2;" d="M346.436,355.825l-14.15,14.14c-15.62,15.63-40.94,15.63-56.56,0l-28.29-28.28
	c-7.81-7.81-20.47-7.81-28.28,0l-14.14,14.14l-7.08-7.07l-42.42-42.42l-7.07-7.08l14.14-14.14c7.81-7.81,7.81-20.47,0-28.28
	l-28.29-28.29c-15.62-15.62-15.62-40.94,0-56.57l14.15-14.14L346.436,355.825z"/>
<path style="fill:#935C41;" d="M205.017,355.825l-107.37,122.66c-0.74,0.84-1.51,1.67-2.32,2.48c-19.49,19.49-51.22,19.49-70.71,0
	s-19.49-51.22,0-70.71c0.81-0.81,1.64-1.58,2.48-2.32l121.35-108.68l7.07,7.08l42.42,42.42L205.017,355.825z"/>
<path d="M480.785,179.054l-14.14,14.14c-3.905,3.905-3.905,10.237,0,14.143c1.953,1.952,4.512,2.929,7.071,2.929
	s5.119-0.977,7.071-2.929l14.14-14.14c3.905-3.905,3.905-10.237,0-14.143C491.022,175.15,484.69,175.15,480.785,179.054z"/>
<path d="M45.826,445.605c-3.9,3.91-3.9,10.24,0,14.15c3.91,3.9,10.24,3.9,14.15,0c3.9-3.91,3.9-10.24,0-14.15
	C56.067,441.706,49.736,441.706,45.826,445.605z"/>
<path d="M141.454,376.949c3.857-3.952,3.779-10.283-0.173-14.141c-3.953-3.856-10.284-3.779-14.141,0.174l-53.11,54.43
	c-3.857,3.952-3.779,10.283,0.173,14.141c1.945,1.897,4.465,2.843,6.983,2.843c2.601,0,5.199-1.008,7.158-3.017L141.454,376.949z"/>
<path d="M431.365,200.352c-0.053-0.054-0.106-0.107-0.16-0.16l-42.276-42.276c-0.049-0.05-0.098-0.099-0.148-0.148l-42.273-42.273
	c-0.048-0.049-0.097-0.098-0.146-0.146l-42.285-42.285c-0.047-0.048-0.095-0.096-0.144-0.144l-35.285-35.285
	c-1.875-1.875-4.419-2.929-7.071-2.929s-5.196,1.054-7.071,2.929L141.379,150.761l-14.155,14.146
	c-19.488,19.5-19.487,51.221,0.002,70.71l28.291,28.29c1.888,1.889,2.928,4.398,2.928,7.068s-1.04,5.181-2.928,7.069l-13.951,13.95
	L20.425,400.486c-0.005,0.004-0.009,0.009-0.014,0.013c-1.026,0.907-1.966,1.786-2.866,2.685c-23.394,23.394-23.394,61.459,0,84.853
	c11.315,11.314,26.382,17.546,42.426,17.546c16.043,0,31.111-6.231,42.424-17.544c0.915-0.914,1.816-1.877,2.755-2.943
	c0.002-0.002,0.004-0.005,0.006-0.008c0.005-0.005,0.01-0.01,0.014-0.015l107.151-122.41l13.906-13.907
	c3.898-3.898,10.24-3.897,14.139,0.001l28.287,28.276c9.443,9.45,21.999,14.654,35.353,14.654s25.91-5.204,35.349-14.649
	l14.153-14.142l113.129-113.13c3.905-3.905,3.905-10.237,0-14.143L431.365,200.352z M31.688,473.894
	c-15.596-15.596-15.596-40.972-0.002-56.565c0.621-0.62,1.282-1.238,2.021-1.89c0.01-0.009,0.019-0.019,0.029-0.028
	c0.011-0.01,0.022-0.017,0.033-0.027l114.3-102.365l43.261,43.261L90.122,471.899l-0.001,0.001
	c-0.648,0.734-1.258,1.387-1.866,1.994c-7.538,7.538-17.582,11.688-28.284,11.688S39.225,481.432,31.688,473.894z M304.007,371.688
	c-8.01,0-15.541-3.122-21.21-8.795l-28.289-28.279c-11.695-11.695-30.726-11.694-42.422,0l-7.069,7.069l-42.427-42.427l7.068-7.068
	c5.666-5.667,8.786-13.2,8.786-21.212s-3.121-15.545-8.786-21.211l-28.29-28.29c-11.694-11.693-11.693-30.728-0.003-42.425
	l7.079-7.074l183.848,183.848l-7.078,7.073C319.548,368.566,312.016,371.688,304.007,371.688z M346.438,341.684L162.59,157.835
	l98.987-98.987l21.217,21.217l-49.497,49.489c-3.906,3.904-3.906,10.236-0.001,14.142c1.953,1.953,4.512,2.93,7.072,2.93
	c2.559,0,5.118-0.977,7.07-2.929l49.499-49.49l28.288,28.288l-49.498,49.489c-3.906,3.904-3.906,10.236-0.001,14.142
	c1.953,1.953,4.512,2.93,7.072,2.93c2.559,0,5.118-0.977,7.07-2.929l49.499-49.49l28.278,28.278l-49.497,49.489
	c-3.906,3.904-3.906,10.236-0.001,14.142c1.953,1.953,4.512,2.93,7.072,2.93c2.559,0,5.118-0.977,7.07-2.929l49.498-49.49
	l28.288,28.288l-49.497,49.489c-3.906,3.904-3.906,10.236-0.001,14.142c1.953,1.953,4.512,2.93,7.072,2.93
	c2.559,0,5.118-0.977,7.07-2.929l49.499-49.49l21.209,21.209L346.438,341.684z"/>
<path d="M346.436,82.986c2.559,0,5.119-0.977,7.071-2.929l28.28-28.28c3.905-3.905,3.905-10.237,0-14.143
	c-3.905-3.904-10.237-3.904-14.143,0l-28.28,28.28c-3.905,3.905-3.905,10.237,0,14.143
	C341.318,82.009,343.878,82.986,346.436,82.986z"/>
<path d="M304.007,40.555c2.559,0,5.119-0.977,7.071-2.929l14.14-14.14c3.905-3.905,3.906-10.237,0-14.143
	c-3.905-3.903-10.237-3.904-14.142,0l-14.14,14.14c-3.905,3.905-3.906,10.237,0,14.143
	C298.888,39.579,301.447,40.555,304.007,40.555z"/>
<path d="M381.785,122.487c1.953,1.952,4.512,2.929,7.071,2.929s5.119-0.977,7.071-2.929l56.57-56.57
	c3.905-3.905,3.905-10.237,0-14.143c-3.905-3.904-10.237-3.904-14.143,0l-56.57,56.57
	C377.88,112.249,377.88,118.582,381.785,122.487z"/>
<path d="M466.646,108.343l-42.43,42.42c-3.906,3.905-3.906,10.236-0.001,14.143c1.953,1.953,4.512,2.93,7.072,2.93
	c2.559,0,5.118-0.977,7.07-2.928l42.43-42.42c3.906-3.905,3.906-10.236,0.001-14.143S470.552,104.439,466.646,108.343z"/>
<path d="M509.066,80.055c-3.9-3.9-10.24-3.9-14.14,0c-3.91,3.91-3.91,10.24,0,14.14c3.9,3.91,10.24,3.91,14.14,0
	C512.977,90.295,512.977,83.965,509.066,80.055z"/>
<path d="M480.786,37.625c3.9-3.9,3.9-10.23,0-14.14c-3.91-3.9-10.24-3.9-14.15,0c-3.9,3.91-3.9,10.24,0,14.14
	C470.546,41.535,476.876,41.535,480.786,37.625z"/>
<path d="M410.076,23.485c3.9-3.9,3.9-10.23,0-14.14c-3.91-3.9-10.24-3.9-14.15,0c-3.9,3.91-3.9,10.24,0,14.14
	C399.836,27.395,406.166,27.395,410.076,23.485z"/>
<g>
</g>
<g>
</g>
<g>
</g>
<g>
</g>
<g>
</g>
<g>
</g>
<g>
</g>
<g>
</g>
<g>
</g>
<g>
</g>
<g>
</g>
<g>
</g>
<g>
</g>
<g>
</g>
<g>
</g>
</svg>
