<?xml version="1.0" encoding="iso-8859-1"?>
<!-- Generator: Adobe Illustrator 19.0.0, SVG Export Plug-In . SVG Version: 6.00 Build 0)  -->
<svg version="1.1" id="Capa_1" xmlns="http://www.w3.org/2000/svg" xmlns:xlink="http://www.w3.org/1999/xlink" x="0px" y="0px"
	 viewBox="0 0 512 512" style="enable-background:new 0 0 512 512;" xml:space="preserve">
<path style="fill:#4DBBEB;" d="M90,279.57V316c-44.11,0-80,35.89-80,80V276V116c22.09,22.09,57.91,22.09,80,0v160V279.57z"/>
<path style="fill:#FFF5CD;" d="M50,36l40,80c-22.09,22.09-57.91,22.09-80,0L50,36z"/>
<path style="fill:#FEB756;" d="M502,116v40v40v40v40v120c0-44.11-35.89-80-80-80V36h80v40V116z"/>
<path style="fill:#FD3C65;" d="M422,316c44.11,0,80,35.89,80,80s-35.89,80-80,80H90c-44.11,0-80-35.89-80-80s35.89-80,80-80h76.37
	H422z"/>
<path style="fill:#4DBBEB;" d="M422,376c11.05,0,20,8.95,20,20s-8.95,20-20,20s-20-8.95-20-20S410.95,376,422,376z"/>
<path style="fill:#FD3C65;" d="M331.39,93.87c0,0-12.67,69.23-28.29,84.85c-9.83,9.83-23.51,13.48-36.19,10.93
	c-7.47-1.5-14.59-5.14-20.38-10.93c-5.58-5.58-9.16-12.39-10.75-19.56c-2.88-12.91,0.71-26.97,10.75-37.01
	C262.15,106.53,331.39,93.87,331.39,93.87z"/>
<path style="fill:#FFF5CD;" d="M246.53,178.72c5.79,5.79,12.91,9.43,20.38,10.93c-11.65,22.04-32.77,51.22-60.38,83.02
	c-11.01-6.14-21.36-13.89-30.71-23.24c-9.14-9.14-16.74-19.23-22.82-29.96c31.67-27.51,60.74-48.6,82.78-60.31
	C237.37,166.33,240.95,173.14,246.53,178.72z"/>
<path style="fill:#935C41;" d="M175.82,249.43c9.35,9.35,19.7,17.1,30.71,23.24c-12.21,14.06-25.68,28.64-40.16,43.33H90v-36.43
	c21.28-22.15,42.68-42.45,63-60.1C159.08,230.2,166.68,240.29,175.82,249.43z"/>
<path style="fill:#4DBBEB;" d="M90,376c11.05,0,20,8.95,20,20s-8.95,20-20,20s-20-8.95-20-20S78.95,376,90,376z"/>
<path d="M90,366c-16.542,0-30,13.458-30,30s13.458,30,30,30s30-13.458,30-30S106.542,366,90,366z M90,406c-5.514,0-10-4.486-10-10
	s4.486-10,10-10s10,4.486,10,10S95.514,406,90,406z"/>
<path d="M322,386H190c-5.523,0-10,4.478-10,10s4.477,10,10,10h132c5.523,0,10-4.478,10-10S327.523,386,322,386z"/>
<path d="M502,26h-80c-5.523,0-10,4.478-10,10v270H189.87c8.381-8.919,16.482-17.874,24.211-26.774
	c25.299-29.138,45.767-56.83,58.333-78.843c0.814,0.04,1.627,0.06,2.438,0.06c13.125,0,25.834-5.167,35.32-14.652
	c16.965-16.965,28.846-78.048,31.055-90.121c0.592-3.231-0.442-6.547-2.765-8.87c-2.323-2.323-5.638-3.356-8.871-2.767
	c-12.074,2.208-73.167,14.08-90.133,31.046c-10.333,10.334-15.489,24.37-14.518,38.653c-21.94,12.591-49.506,33.005-78.497,58.186
	c-0.019,0.016-0.037,0.032-0.055,0.049c-15.489,13.457-31.027,27.932-46.388,43.187V116.005c0-0.361-0.024-0.722-0.063-1.082
	c-0.011-0.103-0.03-0.205-0.044-0.307c-0.036-0.257-0.079-0.513-0.135-0.768c-0.025-0.111-0.053-0.221-0.081-0.332
	c-0.064-0.25-0.138-0.498-0.222-0.744c-0.034-0.099-0.066-0.197-0.103-0.295c-0.102-0.271-0.218-0.538-0.344-0.801
	c-0.023-0.049-0.04-0.101-0.064-0.149l-0.072-0.143c-0.009-0.016-0.016-0.033-0.025-0.05L58.944,31.528C57.25,28.14,53.788,26,50,26
	s-7.25,2.14-8.944,5.528L1.152,111.335c-0.009,0.016-0.016,0.033-0.025,0.05l-0.072,0.143c-0.024,0.049-0.041,0.1-0.064,0.149
	c-0.126,0.263-0.242,0.53-0.344,0.801c-0.037,0.098-0.069,0.196-0.103,0.295c-0.084,0.246-0.158,0.493-0.222,0.744
	c-0.028,0.11-0.056,0.22-0.081,0.332c-0.056,0.255-0.099,0.51-0.135,0.768c-0.014,0.103-0.033,0.204-0.044,0.307
	C0.024,115.283,0,115.644,0,116.005V396c0,49.626,40.374,90,90,90h332c49.626,0,90-40.374,90-90V36C512,30.478,507.523,26,502,26z
	 M239.458,185.791c3.803,3.802,8.145,6.927,12.867,9.306c-11.075,18.452-27.64,40.837-47.881,64.651
	c-7.741-4.986-14.971-10.807-21.553-17.39c-6.368-6.368-12.036-13.357-16.928-20.839c23.782-20.223,46.144-36.786,64.569-47.867
	C232.862,178.095,235.858,182.19,239.458,185.791z M253.601,129.222c7.722-7.723,38.917-16.841,65.001-22.565
	c-5.729,26.08-14.851,57.27-22.574,64.992c-7.12,7.12-17.27,10.185-27.147,8.198c-0.001,0-0.002,0-0.003-0.001
	c-5.796-1.163-11.079-3.998-15.278-8.196c-4.042-4.043-6.829-9.11-8.061-14.666C243.29,146.897,246.304,136.52,253.601,129.222z
	 M150.773,234.764c5.285,7.765,11.291,15.052,17.975,21.737c6.896,6.896,14.419,13.062,22.438,18.452
	c-9.249,10.362-18.969,20.759-29.023,31.047H100v-22.374C116.734,266.342,133.76,249.951,150.773,234.764z M50,58.36l27.582,55.164
	c-16.342,12.029-38.823,12.029-55.165,0L50,58.36z M20,135.412c9.403,4.739,19.699,7.125,30,7.125s20.597-2.386,30-7.125v171.147
	c-24.161,2.683-45.463,14.967-60,32.943V135.412z M422,466H90c-38.598,0-70-31.402-70-70s31.402-70,70-70h332
	c38.598,0,70,31.402,70,70S460.598,466,422,466z M432,306.559V46h60v20h-20c-5.523,0-10,4.478-10,10s4.477,10,10,10h20v20h-20
	c-5.523,0-10,4.478-10,10s4.477,10,10,10h20v20h-20c-5.523,0-10,4.478-10,10s4.477,10,10,10h20v20h-20c-5.523,0-10,4.478-10,10
	s4.477,10,10,10h20v20h-20c-5.523,0-10,4.478-10,10s4.477,10,10,10h20v20h-20c-5.523,0-10,4.478-10,10s4.477,10,10,10h20v53.501
	C477.463,321.526,456.161,309.242,432,306.559z"/>
<path d="M422,366c-16.542,0-30,13.458-30,30s13.458,30,30,30s30-13.458,30-30S438.542,366,422,366z M422,406
	c-5.514,0-10-4.486-10-10s4.486-10,10-10s10,4.486,10,10S427.514,406,422,406z"/>
<path d="M150,386c-5.52,0-10,4.48-10,10s4.48,10,10,10s10-4.48,10-10S155.52,386,150,386z"/>
<path d="M362,386c-5.52,0-10,4.48-10,10s4.48,10,10,10s10-4.48,10-10S367.52,386,362,386z"/>
<g>
</g>
<g>
</g>
<g>
</g>
<g>
</g>
<g>
</g>
<g>
</g>
<g>
</g>
<g>
</g>
<g>
</g>
<g>
</g>
<g>
</g>
<g>
</g>
<g>
</g>
<g>
</g>
<g>
</g>
</svg>
