<?xml version="1.0" encoding="iso-8859-1"?>
<!-- Generator: Adobe Illustrator 19.0.0, SVG Export Plug-In . SVG Version: 6.00 Build 0)  -->
<svg version="1.1" id="Capa_1" xmlns="http://www.w3.org/2000/svg" xmlns:xlink="http://www.w3.org/1999/xlink" x="0px" y="0px"
	 viewBox="0 0 512 512" style="enable-background:new 0 0 512 512;" xml:space="preserve">
<path style="fill:#FFFFFF;" d="M130,342v160H90c-44.18,0-80-35.82-80-80s35.82-80,80-80H130z M90,422c0-11.05-8.95-20-20-20
	s-20,8.95-20,20s8.95,20,20,20S90,433.05,90,422z"/>
<path style="fill:#4DBBEB;" d="M10,10v123v123v166c0-44.18,35.82-80,80-80h40h40v-86V133V10H10z"/>
<polygon style="fill:#FD3C65;" points="379,342 256,342 170,342 130,342 130,502 256,502 379,502 502,502 502,342 "/>
<path d="M414.929,237.071l40,40c1.953,1.953,4.512,2.929,7.071,2.929s5.119-0.976,7.071-2.929l40-40
	c3.905-3.905,3.905-10.237,0-14.143s-10.237-3.905-14.143,0l-22.973,22.973c-0.708-36.273-10.803-71.767-29.31-102.902
	c-2.822-4.747-8.959-6.308-13.706-3.486s-6.308,8.958-3.486,13.706c16.651,28.01,25.751,59.931,26.476,92.567l-22.858-22.858
	c-3.905-3.905-10.237-3.905-14.143,0S411.023,233.166,414.929,237.071z"/>
<path d="M70,392c-16.542,0-30,13.458-30,30s13.458,30,30,30s30-13.458,30-30S86.542,392,70,392z M70,432c-5.514,0-10-4.486-10-10
	s4.486-10,10-10s10,4.486,10,10S75.514,432,70,432z"/>
<path d="M502,332H180V10c0-5.523-4.477-10-10-10H10C4.477,0,0,4.477,0,10v412c0,49.626,40.374,90,90,90h412c5.523,0,10-4.478,10-10
	V342C512,336.477,507.523,332,502,332z M246,352v140H140V352H246z M266,352h103v140H266V352z M20,143h140v103H20V143z M160,20v103
	H20V20H160z M20,266h140v66H90c-28.245,0-53.487,13.082-70,33.501V266z M20,422c0-38.598,31.402-70,70-70h30v140H90
	C51.402,492,20,460.598,20,422z M492,492H389V352h103V492z"/>
<path d="M224,63.818C236.408,61.285,249.192,60,262,60c34.099,0,67.565,9.18,96.78,26.546c1.603,0.952,3.362,1.405,5.101,1.405
	c3.411,0,6.736-1.747,8.605-4.892c2.822-4.748,1.261-10.884-3.486-13.706C336.694,50.151,299.694,40,262,40
	c-14.148,0-28.279,1.42-42,4.222c-5.411,1.105-8.902,6.387-7.797,11.798C213.307,61.431,218.584,64.922,224,63.818z"/>
<path d="M410.49,115.65c3.91-3.91,3.91-10.24,0-14.14c-3.9-3.91-10.23-3.91-14.14,0c-3.9,3.9-3.9,10.23,0,14.14
	C400.26,119.55,406.59,119.55,410.49,115.65z"/>
<g>
</g>
<g>
</g>
<g>
</g>
<g>
</g>
<g>
</g>
<g>
</g>
<g>
</g>
<g>
</g>
<g>
</g>
<g>
</g>
<g>
</g>
<g>
</g>
<g>
</g>
<g>
</g>
<g>
</g>
</svg>
