<?xml version="1.0" encoding="iso-8859-1"?>
<!-- Generator: Adobe Illustrator 19.0.0, SVG Export Plug-In . SVG Version: 6.00 Build 0)  -->
<svg version="1.1" id="Capa_1" xmlns="http://www.w3.org/2000/svg" xmlns:xlink="http://www.w3.org/1999/xlink" x="0px" y="0px"
	 viewBox="0 0 512.001 512.001" style="enable-background:new 0 0 512.001 512.001;" xml:space="preserve">
<path style="fill:#4DBBEB;" d="M496.159,154.926c7.81,7.81,7.81,20.471,0,28.291l-35.622,34.941L304.641,62.262l-0.31-0.31
	l35.592-34.972c7.82-7.81,20.481-7.81,28.291,0L496.159,154.926z"/>
<path style="fill:#FFF5CD;" d="M460.538,218.159L265.289,409.657l-0.62-0.63L110.003,254.13l-0.63-0.64L304.331,61.952l0.31,0.31
	L460.538,218.159z"/>
<path style="fill:#FD3C65;" d="M264.669,409.027l0.62,0.63l-64.913,63.663c-23.431,23.431-61.423,23.431-84.854,0l-99.664-99.664
	c-7.81-7.81-7.81-20.471,0-28.281l93.514-91.884l0.63,0.64L264.669,409.027z"/>
<path d="M328.482,480.21h-20.001c-5.523,0-10,4.477-10,10c0,5.523,4.477,10,10,10h20.001c5.523,0,10-4.477,10-10
	C338.483,484.687,334.005,480.21,328.482,480.21z"/>
<path d="M368.484,480.21c-5.53,0-10,4.47-10,10c0,5.52,4.47,10,10,10c5.52,0,10-4.48,10-10
	C378.484,484.68,374.004,480.21,368.484,480.21z"/>
<path d="M257.479,321.203c-5.53,0-10,4.47-10,10c0,5.52,4.47,10,10,10c5.52,0,10-4.48,10-10
	C267.479,325.674,262.999,321.203,257.479,321.203z"/>
<path d="M222.478,286.202c-5.53,0-10,4.47-10,10c0,5.52,4.47,10,10,10c5.52,0,10-4.48,10-10
	C232.478,290.672,227.998,286.202,222.478,286.202z"/>
<path d="M185.476,250.2c-5.53,0-10,4.47-10,10c0,5.52,4.47,10,10,10c5.52,0,10-4.48,10-10
	C195.476,254.67,190.996,250.2,185.476,250.2z"/>
<path d="M503.231,147.854L375.285,19.908c-11.692-11.692-30.725-11.693-42.372-0.062l-230.55,226.51L8.787,338.303
	C3.121,343.969,0,351.503,0,359.515s3.12,15.546,8.786,21.212l99.665,99.664c13.657,13.657,31.592,20.478,49.523,20.478
	c3.286,0,6.571-0.234,9.83-0.693c0.222,0.015,0.444,0.034,0.67,0.034H268.48c5.523,0,10-4.477,10-10c0-5.523-4.477-10-10-10h-60.846
	l64.658-63.413l0,0l193.067-189.363c0.931-0.467,1.807-1.082,2.585-1.858c0.738-0.737,1.335-1.56,1.795-2.437l33.423-32.782
	c0.024-0.024,0.049-0.048,0.073-0.072C514.924,178.58,514.922,159.546,503.231,147.854z M265.365,395.572L123.571,253.566
	L304.267,76.032l142.057,142.056L265.365,395.572z M122.594,466.249L22.93,366.584c-1.889-1.889-2.929-4.399-2.929-7.069
	s1.04-5.18,2.866-7.007l86.437-84.924l141.782,141.993l-57.78,56.671C173.809,485.743,142.089,485.743,122.594,466.249z
	 M489.11,176.123l-28.507,27.959L318.535,62.013l28.455-27.957c1.954-1.952,4.518-2.927,7.082-2.927c2.561,0,5.122,0.974,7.07,2.922
	l127.946,127.946C492.977,165.887,492.984,172.215,489.11,176.123z"/>
<path d="M397.431,197.487c-3.794-4.013-10.124-4.191-14.138-0.396l-104.334,98.654c-4.013,3.794-4.19,10.124-0.396,14.138
	c1.967,2.08,4.614,3.129,7.268,3.129c2.465,0,4.936-0.906,6.869-2.734l104.334-98.654C401.048,207.83,401.225,201.5,397.431,197.487
	z"/>
<path d="M220.819,239.395l104.835-99.154c4.012-3.795,4.188-10.124,0.394-14.138c-3.795-4.013-10.125-4.188-14.138-0.394
	l-104.835,99.154c-4.012,3.795-4.188,10.124-0.394,14.138c1.967,2.08,4.614,3.128,7.267,3.128
	C216.414,242.13,218.885,241.223,220.819,239.395z"/>
<path d="M257.699,275.277l104.335-98.654c4.013-3.794,4.19-10.124,0.396-14.138c-3.794-4.013-10.124-4.19-14.138-0.396
	l-104.334,98.654c-4.013,3.794-4.19,10.124-0.396,14.138c1.967,2.08,4.614,3.129,7.268,3.129
	C253.296,278.011,255.766,277.105,257.699,275.277z"/>
<g>
</g>
<g>
</g>
<g>
</g>
<g>
</g>
<g>
</g>
<g>
</g>
<g>
</g>
<g>
</g>
<g>
</g>
<g>
</g>
<g>
</g>
<g>
</g>
<g>
</g>
<g>
</g>
<g>
</g>
</svg>
