<?xml version="1.0" encoding="iso-8859-1"?>
<!-- Generator: Adobe Illustrator 19.0.0, SVG Export Plug-In . SVG Version: 6.00 Build 0)  -->
<svg version="1.1" id="Capa_1" xmlns="http://www.w3.org/2000/svg" xmlns:xlink="http://www.w3.org/1999/xlink" x="0px" y="0px"
	 viewBox="0 0 512 512" style="enable-background:new 0 0 512 512;" xml:space="preserve">
<path style="fill:#FFF5CD;" d="M419,116h83v280h-83.89H339V116H419z"/>
<polygon style="fill:#4DBBEB;" points="418.11,396 456.86,476 379.36,476 "/>
<path style="fill:#FEB756;" d="M256,396h-83V116h166v280H256z"/>
<path style="fill:#FD3C65;" d="M93,116h80v280H10V116h82.11H93z"/>
<polygon style="fill:#4DBBEB;" points="130.86,36 92.11,116 53.36,36 "/>
<path d="M299,466H93c-5.523,0-10,4.477-10,10s4.477,10,10,10h206c5.523,0,10-4.477,10-10S304.523,466,299,466z"/>
<path d="M213,46h206c5.523,0,10-4.477,10-10s-4.477-10-10-10H213c-5.523,0-10,4.477-10,10S207.477,46,213,46z"/>
<path d="M502,106H108.065l31.795-65.641c1.501-3.099,1.302-6.752-0.527-9.67S134.303,26,130.86,26h-77.5
	c-3.443,0-6.645,1.771-8.473,4.689c-1.829,2.917-2.028,6.571-0.527,9.67L76.155,106H10c-5.523,0-10,4.477-10,10v280
	c0,5.523,4.477,10,10,10h392.155l-31.795,65.641c-1.501,3.099-1.302,6.752,0.527,9.67s5.03,4.689,8.473,4.689h77.5
	c3.443,0,6.645-1.771,8.473-4.689c1.829-2.917,2.028-6.571,0.527-9.67L434.065,406H502c5.523,0,10-4.477,10-10V116
	C512,110.477,507.523,106,502,106z M395.315,466l22.795-47.061L440.905,466H395.315z M256,186c-5.523,0-10,4.477-10,10v190h-63V126
	h146v260h-63V196C266,190.477,261.523,186,256,186z M114.905,46L92.11,93.061L69.315,46H114.905z M20,126h63v190
	c0,5.523,4.477,10,10,10s10-4.477,10-10V126h60v260H20V126z M492,386H349V126h60v190c0,5.523,4.477,10,10,10s10-4.477,10-10V126h63
	V386z"/>
<path d="M419,346c-5.52,0-10,4.48-10,10s4.48,10,10,10s10-4.48,10-10S424.52,346,419,346z"/>
<path d="M339,466c-5.52,0-10,4.48-10,10s4.48,10,10,10s10-4.48,10-10S344.52,466,339,466z"/>
<path d="M256,146c-5.52,0-10,4.48-10,10s4.48,10,10,10c5.52,0,10-4.48,10-10S261.52,146,256,146z"/>
<path d="M173,46c5.52,0,10-4.48,10-10s-4.48-10-10-10s-10,4.48-10,10S167.48,46,173,46z"/>
<path d="M93,346c-5.52,0-10,4.48-10,10s4.48,10,10,10s10-4.48,10-10S98.52,346,93,346z"/>
<g>
</g>
<g>
</g>
<g>
</g>
<g>
</g>
<g>
</g>
<g>
</g>
<g>
</g>
<g>
</g>
<g>
</g>
<g>
</g>
<g>
</g>
<g>
</g>
<g>
</g>
<g>
</g>
<g>
</g>
</svg>
