<?xml version="1.0" encoding="iso-8859-1"?>
<!-- Generator: Adobe Illustrator 19.0.0, SVG Export Plug-In . SVG Version: 6.00 Build 0)  -->
<svg version="1.1" id="Capa_1" xmlns="http://www.w3.org/2000/svg" xmlns:xlink="http://www.w3.org/1999/xlink" x="0px" y="0px"
	 viewBox="0 0 512.001 512.001" style="enable-background:new 0 0 512.001 512.001;" xml:space="preserve">
<path style="fill:#4DBBEB;" d="M497.43,183.28l-1.29,0.72l-76.91,61.76l-0.23-0.28V176h63C488.22,176,493.77,178.83,497.43,183.28z"
	/>
<path style="fill:#FEB756;" d="M419,245.48l0.23,0.28l-113.7,91.31l-0.1,0.12L256,296l-49.43,41.19l-0.1-0.12l-113.7-91.31
	l0.23-0.28V176V30c0-11.05,8.95-20,20-20h286c11.05,0,20,8.95,20,20v146V245.48z"/>
<circle style="fill:#FFF5CD;" cx="256" cy="153" r="100"/>
<path style="fill:#BEE7F4;" d="M497.43,183.28l-1.29,0.72l-76.91,61.76l-113.7,91.31l-0.1,0.12L256,296l-49.43,41.19l-0.1-0.12
	l-113.7-91.31L15.86,184l-1.29-0.72C11.72,186.74,10,191.17,10,196v286c0,5.52,2.24,10.52,5.86,14.14C19.48,499.76,24.48,502,30,502
	h452c5.52,0,10.52-2.24,14.14-5.86c3.62-3.62,5.86-8.62,5.86-14.14V196C502,191.17,500.28,186.74,497.43,183.28z"/>
<path style="fill:#4DBBEB;" d="M93,176v69.48l-0.23,0.28L15.86,184l-1.29-0.72C18.23,178.83,23.78,176,30,176H93z"/>
<path d="M316,429H156c-5.523,0-10,4.478-10,10s4.477,10,10,10h160c5.523,0,10-4.478,10-10S321.523,429,316,429z"/>
<path d="M256,263c60.654,0,110-49.346,110-110S316.654,43,256,43S146,92.346,146,153S195.346,263,256,263z M256,63
	c49.626,0,90,40.374,90,90s-40.374,90-90,90s-90-40.374-90-90S206.374,63,256,63z"/>
<path d="M505.153,176.928C499.441,169.983,491.002,166,482,166h-53V30c0-16.542-13.458-30-30-30H113C96.458,0,83,13.458,83,30v136
	H30c-9.002,0-17.441,3.983-23.149,10.923C2.433,182.287,0,189.062,0,196v286c0,8.01,3.121,15.542,8.789,21.211
	c0.019,0.019,0.039,0.036,0.058,0.055c0.025,0.025,0.052,0.049,0.077,0.073C14.576,508.924,22.052,512,30,512h452
	c7.905,0,15.341-3.044,20.983-8.572c0.036-0.034,0.072-0.068,0.108-0.103c0.04-0.039,0.082-0.076,0.121-0.115
	c5.667-5.668,8.789-13.2,8.789-21.21V196C512,189.062,509.567,182.287,505.153,176.928z M20,200.15l170.803,137.164L20,479.671
	V200.15z M212.972,344.873L256,309.017l43.028,35.855L475.554,492H36.446L212.972,344.873z M321.198,337.313L492,200.15v279.521
	L321.198,337.313z M477.679,186L429,225.092V186H477.679z M103,30c0-5.514,4.486-10,10-10h286c5.514,0,10,4.486,10,10v211.153
	L305.523,324.25l-43.121-35.933c-3.709-3.09-9.095-3.09-12.804,0l-43.121,35.933L103,241.153V30z M83,225.092L34.321,186H83V225.092
	z"/>
<path d="M238.929,200.071c1.953,1.952,4.512,2.929,7.071,2.929s5.119-0.977,7.071-2.929l60-60c3.905-3.905,3.905-10.237,0-14.143
	c-3.905-3.904-10.237-3.904-14.143,0L246,178.857l-32.929-32.929c-3.905-3.904-10.237-3.904-14.143,0
	c-3.905,3.905-3.905,10.237,0,14.143L238.929,200.071z"/>
<path d="M356,429c-5.52,0-10,4.48-10,10s4.48,10,10,10s10-4.48,10-10S361.52,429,356,429z"/>
<g>
</g>
<g>
</g>
<g>
</g>
<g>
</g>
<g>
</g>
<g>
</g>
<g>
</g>
<g>
</g>
<g>
</g>
<g>
</g>
<g>
</g>
<g>
</g>
<g>
</g>
<g>
</g>
<g>
</g>
</svg>
