<?xml version="1.0" encoding="iso-8859-1"?>
<!-- Generator: Adobe Illustrator 19.0.0, SVG Export Plug-In . SVG Version: 6.00 Build 0)  -->
<svg version="1.1" id="Capa_1" xmlns="http://www.w3.org/2000/svg" xmlns:xlink="http://www.w3.org/1999/xlink" x="0px" y="0px"
	 viewBox="0 0 512 512" style="enable-background:new 0 0 512 512;" xml:space="preserve">
<path style="fill:#935C41;" d="M498.346,13.664c21.507,21.507-54.932,132.83-162.466,240.364
	c-22.187,22.187-44.863,43.383-66.94,62.731l-0.1-0.11c-8.459-15.158-19.127-29.416-31.995-42.284
	c-12.578-12.578-26.476-23.047-41.254-31.415l-0.11-0.1c19.287-21.997,40.424-44.603,62.521-66.7
	C365.535,68.616,476.839-7.843,498.346,13.664z"/>
<path style="fill:#E2E2E2;" d="M268.84,316.649l0.1,0.11c-46.173,40.454-89.687,72.789-120.402,89.017h-0.01
	c-2.06-10.288-7.069-20.087-15.038-28.056c-7.669-7.669-17.057-12.608-26.926-14.798v-0.01
	c16.318-30.705,48.603-74.079,88.917-120.062l0.11,0.1c14.778,8.369,28.676,18.837,41.254,31.415
	C249.713,287.233,260.381,301.491,268.84,316.649z"/>
<path style="fill:#FD3C65;" d="M148.528,405.775c3.519,17.457-1.5,36.295-15.038,49.833
	C111.984,477.114,9.999,501.991,9.999,501.991s24.106-102.765,45.613-124.271c13.828-13.828,33.185-18.767,50.952-14.798
	c9.869,2.19,19.257,7.129,26.926,14.798C141.459,385.688,146.468,395.487,148.528,405.775z"/>
<path d="M505.415,6.594c-12.486-12.485-34.825-3.892-42.165-1.068c-15.725,6.049-35.386,17.058-58.436,32.722
	c-46.377,31.513-101.027,77.977-153.882,130.833c-21.898,21.897-43.084,44.499-62.97,67.178
	c-38.886,44.354-69.413,85.082-86.77,115.679c-19.396-2.023-38.637,4.699-52.65,18.712C25.682,393.51,2.799,488.906,0.264,499.707
	c-0.794,3.384,0.227,6.938,2.696,9.386c1.895,1.878,4.433,2.897,7.039,2.897c0.789,0,1.584-0.094,2.369-0.285
	c10.717-2.614,105.364-26.198,128.192-49.026c13.66-13.66,20.428-32.456,18.823-51.44c30.641-17.28,71.54-47.88,116.146-86.96
	c22.763-19.949,45.446-41.206,67.421-63.179c52.849-52.849,99.31-107.504,130.823-153.894
	c15.661-23.054,26.667-42.717,32.714-58.443C509.311,41.42,517.901,19.079,505.415,6.594z M140.56,370.649
	c-5.632-5.632-12.192-10.134-19.354-13.348c16.145-27.239,43.208-63.287,76.302-101.549c11.644,7.291,22.48,15.894,32.267,25.683
	c10.073,10.074,18.885,21.242,26.302,33.26c-38.356,33.156-74.455,60.227-101.715,76.343
	C151.128,383.473,146.472,376.562,140.56,370.649z M126.42,448.538c-12.38,12.38-64.173,29.266-102.696,39.605
	c10.048-38.797,26.583-90.979,38.958-103.353c8.571-8.572,19.965-13.209,31.773-13.209c3.3,0,6.633,0.362,9.944,1.103
	c8.335,1.85,15.95,6.035,22.021,12.106c6.306,6.306,10.561,14.241,12.303,22.948c0.001,0.004,0.002,0.009,0.003,0.014
	C141.719,422.593,137.118,437.84,126.42,448.538z M457.233,95.968c-30.38,44.722-77.189,99.756-128.423,150.99
	c-18.785,18.786-38.094,37.034-57.519,54.371c-7.847-12.248-17.009-23.667-27.375-34.034
	c-10.082-10.081-21.169-19.032-33.048-26.741c17.286-19.362,35.479-38.608,54.205-57.333
	c51.239-51.24,106.27-98.052,150.981-128.434c54.019-36.706,73.077-36.199,75.222-34.053
	C493.422,22.881,493.935,41.939,457.233,95.968z"/>
<path d="M365.828,117.13c-24.163,20.219-57.353,50.959-86.62,80.225c-3.904,3.904-3.905,10.235,0,14.141
	c1.953,1.952,4.511,2.929,7.07,2.929s5.118-0.977,7.07-2.929c28.443-28.442,61.93-59.463,85.314-79.03
	c4.234-3.543,4.795-9.85,1.252-14.084C376.37,114.146,370.063,113.585,365.828,117.13z"/>
<path d="M250.603,225.932c-3.899,3.909-3.899,10.238,0,14.138c3.909,3.909,10.238,3.909,14.148,0c3.899-3.899,3.899-10.228,0-14.138
	C260.841,222.033,254.512,222.033,250.603,225.932z"/>
<g>
</g>
<g>
</g>
<g>
</g>
<g>
</g>
<g>
</g>
<g>
</g>
<g>
</g>
<g>
</g>
<g>
</g>
<g>
</g>
<g>
</g>
<g>
</g>
<g>
</g>
<g>
</g>
<g>
</g>
</svg>
