<?xml version="1.0" encoding="iso-8859-1"?>
<!-- Generator: Adobe Illustrator 19.0.0, SVG Export Plug-In . SVG Version: 6.00 Build 0)  -->
<svg version="1.1" id="Capa_1" xmlns="http://www.w3.org/2000/svg" xmlns:xlink="http://www.w3.org/1999/xlink" x="0px" y="0px"
	 viewBox="0 0 512 512" style="enable-background:new 0 0 512 512;" xml:space="preserve">
<g>
	<rect x="10" y="462" style="fill:#4DBBEB;" width="40" height="40"/>
	<rect x="10" y="10" style="fill:#4DBBEB;" width="40" height="40"/>
	<rect x="462" y="462" style="fill:#4DBBEB;" width="40" height="40"/>
	<rect x="462" y="10" style="fill:#4DBBEB;" width="40" height="40"/>
</g>
<polygon style="fill:#FEB756;" points="359,93 442,236 276,236 "/>
<rect x="93" y="93" style="fill:#4DBBEB;" width="143" height="143"/>
<circle style="fill:#FD3C65;" cx="163" cy="349" r="70"/>
<path d="M339,40h20c5.523,0,10-4.477,10-10s-4.477-10-10-10h-20c-5.523,0-10,4.477-10,10S333.477,40,339,40z"/>
<path d="M399,40h20c5.523,0,10-4.477,10-10s-4.477-10-10-10h-20c-5.523,0-10,4.477-10,10S393.477,40,399,40z"/>
<path d="M50,0H10C4.477,0,0,4.477,0,10v40c0,5.523,4.477,10,10,10h40c5.523,0,10-4.477,10-10V10C60,4.477,55.523,0,50,0z M40,40H20
	V20h20V40z"/>
<path d="M56,452H16c-5.523,0-10,4.477-10,10v40c0,5.523,4.477,10,10,10h40c5.523,0,10-4.477,10-10v-40C66,456.477,61.523,452,56,452
	z M46,492H26v-20h20V492z"/>
<path d="M502,0h-40c-5.523,0-10,4.477-10,10v40c0,5.523,4.477,10,10,10h40c5.523,0,10-4.477,10-10V10C512,4.477,507.523,0,502,0z
	 M492,40h-20V20h20V40z"/>
<path d="M502,452h-40c-5.523,0-10,4.477-10,10v40c0,5.523,4.477,10,10,10h40c5.523,0,10-4.477,10-10v-40
	C512,456.477,507.523,452,502,452z M492,492h-20v-20h20V492z"/>
<path d="M236,83H93c-5.523,0-10,4.477-10,10v143c0,5.523,4.477,10,10,10h143c5.523,0,10-4.477,10-10V93
	C246,87.477,241.523,83,236,83z M226,226H103V103h123V226z"/>
<path d="M450.649,230.98l-83-143C365.859,84.897,362.564,83,359,83s-6.859,1.897-8.649,4.98l-83,143
	c-1.795,3.094-1.802,6.911-0.017,10.01S272.423,246,276,246h166c3.577,0,6.881-1.91,8.666-5.01S452.444,234.074,450.649,230.98z
	 M293.367,226L359,112.921L424.633,226H293.367z"/>
<path d="M163,429c44.112,0,80-35.888,80-80s-35.888-80-80-80s-80,35.888-80,80S118.888,429,163,429z M163,289
	c33.084,0,60,26.916,60,60s-26.916,60-60,60s-60-26.916-60-60S129.916,289,163,289z"/>
<path d="M303.071,426.071l123-123c3.905-3.905,3.905-10.237,0-14.143c-3.905-3.905-10.237-3.905-14.143,0l-123,123
	c-3.905,3.905-3.905,10.237,0,14.143c1.953,1.953,4.512,2.929,7.071,2.929S301.119,428.024,303.071,426.071z"/>
<path d="M30,123c5.523,0,10-4.477,10-10V93c0-5.523-4.477-10-10-10s-10,4.477-10,10v20C20,118.523,24.477,123,30,123z"/>
<path d="M20,176c0,5.523,4.477,10,10,10s10-4.477,10-10v-20c0-5.523-4.477-10-10-10s-10,4.477-10,10V176z"/>
<path d="M20,236c0,5.523,4.477,10,10,10s10-4.477,10-10v-20c0-5.523-4.477-10-10-10s-10,4.477-10,10V236z"/>
<path d="M20,296c0,5.523,4.477,10,10,10s10-4.477,10-10v-20c0-5.523-4.477-10-10-10s-10,4.477-10,10V296z"/>
<path d="M20,359c0,5.523,4.477,10,10,10s10-4.477,10-10v-23c0-5.523-4.477-10-10-10s-10,4.477-10,10V359z"/>
<path d="M20,419c0,5.523,4.477,10,10,10s10-4.477,10-10v-20c0-5.523-4.477-10-10-10s-10,4.477-10,10V419z"/>
<path d="M482,123c5.523,0,10-4.477,10-10V93c0-5.523-4.477-10-10-10s-10,4.477-10,10v20C472,118.523,476.477,123,482,123z"/>
<path d="M472,176c0,5.523,4.477,10,10,10s10-4.477,10-10v-20c0-5.523-4.477-10-10-10s-10,4.477-10,10V176z"/>
<path d="M472,236c0,5.523,4.477,10,10,10s10-4.477,10-10v-20c0-5.523-4.477-10-10-10s-10,4.477-10,10V236z"/>
<path d="M472,296c0,5.523,4.477,10,10,10s10-4.477,10-10v-20c0-5.523-4.477-10-10-10s-10,4.477-10,10V296z"/>
<path d="M472,359c0,5.523,4.477,10,10,10s10-4.477,10-10v-23c0-5.523-4.477-10-10-10s-10,4.477-10,10V359z"/>
<path d="M472,419c0,5.523,4.477,10,10,10s10-4.477,10-10v-20c0-5.523-4.477-10-10-10s-10,4.477-10,10V419z"/>
<path d="M116,472H93c-5.523,0-10,4.477-10,10s4.477,10,10,10h23c5.523,0,10-4.477,10-10S121.523,472,116,472z"/>
<path d="M176,472h-20c-5.523,0-10,4.477-10,10s4.477,10,10,10h20c5.523,0,10-4.477,10-10S181.523,472,176,472z"/>
<path d="M236,472h-20c-5.523,0-10,4.477-10,10s4.477,10,10,10h20c5.523,0,10-4.477,10-10S241.523,472,236,472z"/>
<path d="M296,472h-20c-5.523,0-10,4.477-10,10s4.477,10,10,10h20c5.523,0,10-4.477,10-10S301.523,472,296,472z"/>
<path d="M359,472h-20c-5.523,0-10,4.477-10,10s4.477,10,10,10h20c5.523,0,10-4.477,10-10S364.523,472,359,472z"/>
<path d="M419,472h-20c-5.523,0-10,4.477-10,10s4.477,10,10,10h20c5.523,0,10-4.477,10-10S424.523,472,419,472z"/>
<path d="M93,40h23c5.523,0,10-4.477,10-10s-4.477-10-10-10H93c-5.523,0-10,4.477-10,10S87.477,40,93,40z"/>
<path d="M156,40h20c5.523,0,10-4.477,10-10s-4.477-10-10-10h-20c-5.523,0-10,4.477-10,10S150.477,40,156,40z"/>
<path d="M236,20h-20c-5.523,0-10,4.477-10,10s4.477,10,10,10h20c5.523,0,10-4.477,10-10S241.523,20,236,20z"/>
<path d="M276,40h20c5.523,0,10-4.477,10-10s-4.477-10-10-10h-20c-5.523,0-10,4.477-10,10S270.477,40,276,40z"/>
<g>
</g>
<g>
</g>
<g>
</g>
<g>
</g>
<g>
</g>
<g>
</g>
<g>
</g>
<g>
</g>
<g>
</g>
<g>
</g>
<g>
</g>
<g>
</g>
<g>
</g>
<g>
</g>
<g>
</g>
</svg>
