<?xml version="1.0" encoding="UTF-8"?>
<svg width="50px" height="50px" viewBox="0 0 50 50" version="1.1" xmlns="http://www.w3.org/2000/svg" xmlns:xlink="http://www.w3.org/1999/xlink">
    <!-- Generator: Sketch 49.2 (51160) - http://www.bohemiancoding.com/sketch -->
    <title>Shape</title>
    <desc>Created with Sketch.</desc>
    <defs></defs>
    <g id="Symbols" stroke="none" stroke-width="1" fill="none" fill-rule="evenodd" fill-opacity="0.949999988">
        <g id="home-/-sale" transform="translate(-97.000000, -175.000000)" fill="#FF3C46" fill-rule="nonzero">
            <g id="badge" transform="translate(97.000000, 175.000000)">
                <path d="M7.75631507,40.7527633 L4.8670186,39.0365676 C3.58755599,38.2765876 2.79591585,36.9054266 2.77748504,35.4173894 L2.73586434,32.0570876 C2.727023,31.3432706 2.53940084,30.643055 2.19014915,30.0204507 L0.546042775,27.0895336 C-0.182014258,25.7916402 -0.182014258,24.2083597 0.546042775,22.9104663 L2.19014915,19.9795493 C2.53940084,19.3569449 2.727023,18.6567295 2.73586434,17.9429124 L2.77748504,14.5826105 C2.79591585,13.0945733 3.58755599,11.7234124 4.8670186,10.9634322 L7.75631507,9.24723671 C8.37007807,8.88267137 8.88267137,8.37007807 9.24723671,7.75631507 L10.9634322,4.8670186 C11.7234124,3.58755599 13.0945733,2.79591585 14.5826105,2.77748504 L17.9429124,2.73586434 C18.6567295,2.727023 19.3569449,2.53940084 19.9795493,2.19014915 L22.9104663,0.546042775 C24.2083597,-0.182014258 25.7916402,-0.182014258 27.0895336,0.546042775 L30.0204507,2.19014915 C30.643055,2.53940084 31.3432706,2.727023 32.0570876,2.73586434 L35.4173894,2.77748504 C36.9054266,2.79591585 38.2765876,3.58755599 39.0365676,4.8670186 L40.7527633,7.75631507 C41.1173286,8.37007807 41.6299219,8.88267137 42.2436848,9.24723671 L45.1329813,10.9634322 C46.412444,11.7234124 47.204084,13.0945733 47.2225149,14.5826105 L47.2641355,17.9429124 C47.2729769,18.6567295 47.4605992,19.3569449 47.8098507,19.9795493 L49.4539573,22.9104663 C50.1820142,24.2083597 50.1820142,25.7916402 49.4539573,27.0895336 L47.8098507,30.0204507 C47.4605992,30.643055 47.2729769,31.3432706 47.2641355,32.0570876 L47.2225149,35.4173894 C47.204084,36.9054266 46.412444,38.2765876 45.1329813,39.0365676 L42.2436848,40.7527633 C41.6299219,41.1173286 41.1173286,41.6299219 40.7527633,42.2436848 L39.0365676,45.1329813 C38.2765876,46.412444 36.9054266,47.204084 35.4173894,47.2225149 L32.0570876,47.2641355 C31.3432706,47.2729769 30.643055,47.4605992 30.0204507,47.8098507 L27.0895336,49.4539573 C25.7916402,50.1820142 24.2083597,50.1820142 22.9104663,49.4539573 L19.9795493,47.8098507 C19.3569449,47.4605992 18.6567295,47.2729769 17.9429124,47.2641355 L14.5826105,47.2225149 C13.0945733,47.204084 11.7234124,46.412444 10.9634322,45.1329813 L9.24723671,42.2436848 C8.88267137,41.6299219 8.37007807,41.1173286 7.75631507,40.7527633 Z" id="Shape"></path>
            </g>
        </g>
    </g>
</svg>