<?xml version="1.0" encoding="UTF-8"?>
<svg width="24px" height="24px" viewBox="0 0 24 24" version="1.1" xmlns="http://www.w3.org/2000/svg" xmlns:xlink="http://www.w3.org/1999/xlink">
    <!-- Generator: Sketch 49.1 (51147) - http://www.bohemiancoding.com/sketch -->
    <title>icon / place (black)</title>
    <desc>Created with Sketch.</desc>
    <defs></defs>
    <g id="icon-/-place-(black)" stroke="none" stroke-width="1" fill="none" fill-rule="evenodd">
        <path d="M12,16 C15.3137085,16 18,13.3137085 18,10 C18,6.6862915 15.3137085,4 12,4 C8.6862915,4 6,6.6862915 6,10 C6,13.3137085 8.6862915,16 12,16 Z M12,18 C7.581722,18 4,14.418278 4,10 C4,5.581722 7.581722,2 12,2 C16.418278,2 20,5.581722 20,10 C20,14.418278 16.418278,18 12,18 Z" id="Oval" fill="#222222" fill-rule="nonzero"></path>
        <path d="M12,16 C12.5522847,16 13,16.4477153 13,17 L13,21 C13,21.5522847 12.5522847,22 12,22 C11.4477153,22 11,21.5522847 11,21 L11,17 C11,16.4477153 11.4477153,16 12,16 Z" id="Rectangle" fill="#222222"></path>
        <circle id="Oval-8" fill="#222222" cx="12" cy="10" r="2"></circle>
    </g>
</svg>